<mxfile host="Electron" modified="2023-11-13T20:56:18.501Z" agent="Mozilla/5.0 (Windows NT 10.0; Win64; x64) AppleWebKit/537.36 (KHTML, like Gecko) draw.io/22.0.3 Chrome/114.0.5735.289 Electron/25.8.4 Safari/537.36" etag="u4M6yOapt9eRmjfwjWZP" version="22.0.3" type="device">
  <diagram name="Página-1" id="-qtsQlnybvfni-91Z3wK">
    <mxGraphModel dx="978" dy="571" grid="1" gridSize="10" guides="1" tooltips="1" connect="1" arrows="1" fold="1" page="1" pageScale="1" pageWidth="827" pageHeight="1169" math="0" shadow="0">
      <root>
        <mxCell id="0" />
        <mxCell id="1" parent="0" />
        <mxCell id="IummRMU9RKJVwtvEGmO_-137" value="" style="shape=table;startSize=0;container=1;collapsible=0;childLayout=tableLayout;" parent="1" vertex="1">
          <mxGeometry x="800" y="40" width="1198" height="1200" as="geometry" />
        </mxCell>
        <mxCell id="IummRMU9RKJVwtvEGmO_-138" value="" style="shape=tableRow;horizontal=0;startSize=0;swimlaneHead=0;swimlaneBody=0;strokeColor=inherit;top=0;left=0;bottom=0;right=0;collapsible=0;dropTarget=0;fillColor=none;points=[[0,0.5],[1,0.5]];portConstraint=eastwest;" parent="IummRMU9RKJVwtvEGmO_-137" vertex="1">
          <mxGeometry width="1198" height="240" as="geometry" />
        </mxCell>
        <mxCell id="IummRMU9RKJVwtvEGmO_-139" value="" style="shape=partialRectangle;html=1;whiteSpace=wrap;connectable=0;strokeColor=inherit;overflow=hidden;fillColor=none;top=0;left=0;bottom=0;right=0;pointerEvents=1;" parent="IummRMU9RKJVwtvEGmO_-138" vertex="1">
          <mxGeometry width="242" height="240" as="geometry">
            <mxRectangle width="242" height="240" as="alternateBounds" />
          </mxGeometry>
        </mxCell>
        <mxCell id="IummRMU9RKJVwtvEGmO_-140" value="" style="shape=partialRectangle;html=1;whiteSpace=wrap;connectable=0;strokeColor=inherit;overflow=hidden;fillColor=none;top=0;left=0;bottom=0;right=0;pointerEvents=1;" parent="IummRMU9RKJVwtvEGmO_-138" vertex="1">
          <mxGeometry x="242" width="238" height="240" as="geometry">
            <mxRectangle width="238" height="240" as="alternateBounds" />
          </mxGeometry>
        </mxCell>
        <mxCell id="IummRMU9RKJVwtvEGmO_-141" value="&lt;font style=&quot;&quot;&gt;&lt;span style=&quot;font-weight: bold; font-size: 18px;&quot;&gt;RESTRICCIÓN DE EXCLUSIVIDAD&lt;/span&gt;&lt;br&gt;&lt;font style=&quot;font-size: 12px;&quot;&gt;&lt;br&gt;&lt;/font&gt;&lt;font style=&quot;font-size: 15px;&quot;&gt;Cuando hay una entidad que participa en dos o más relaciones y cada entrada/registro/fila de la entidad solo puede pertenecer a una de ellas&lt;/font&gt;&lt;br&gt;&lt;/font&gt;" style="shape=partialRectangle;html=1;whiteSpace=wrap;connectable=0;strokeColor=inherit;overflow=hidden;fillColor=none;top=0;left=0;bottom=0;right=0;pointerEvents=1;" parent="IummRMU9RKJVwtvEGmO_-138" vertex="1">
          <mxGeometry x="480" width="242" height="240" as="geometry">
            <mxRectangle width="242" height="240" as="alternateBounds" />
          </mxGeometry>
        </mxCell>
        <mxCell id="IummRMU9RKJVwtvEGmO_-142" value="" style="shape=partialRectangle;html=1;whiteSpace=wrap;connectable=0;strokeColor=inherit;overflow=hidden;fillColor=none;top=0;left=0;bottom=0;right=0;pointerEvents=1;" parent="IummRMU9RKJVwtvEGmO_-138" vertex="1">
          <mxGeometry x="722" width="238" height="240" as="geometry">
            <mxRectangle width="238" height="240" as="alternateBounds" />
          </mxGeometry>
        </mxCell>
        <mxCell id="IummRMU9RKJVwtvEGmO_-188" value="&lt;br&gt;&lt;span style=&quot;border-color: rgb(0, 0, 0); color: rgb(240, 240, 240); font-family: Helvetica; font-style: normal; font-variant-ligatures: normal; font-variant-caps: normal; letter-spacing: normal; orphans: 2; text-align: center; text-indent: 0px; text-transform: none; widows: 2; word-spacing: 0px; -webkit-text-stroke-width: 0px; background-color: rgb(27, 29, 30); text-decoration-thickness: initial; text-decoration-style: initial; text-decoration-color: initial; font-weight: bold; font-size: 18px;&quot;&gt;GENERALIZACIÓN DE TOTALIDAD&lt;/span&gt;&lt;br style=&quot;border-color: rgb(0, 0, 0); color: rgb(240, 240, 240); font-family: Helvetica; font-size: 12px; font-style: normal; font-variant-ligatures: normal; font-variant-caps: normal; font-weight: 400; letter-spacing: normal; orphans: 2; text-align: center; text-indent: 0px; text-transform: none; widows: 2; word-spacing: 0px; -webkit-text-stroke-width: 0px; background-color: rgb(27, 29, 30); text-decoration-thickness: initial; text-decoration-style: initial; text-decoration-color: initial;&quot;&gt;&lt;font style=&quot;border-color: rgb(0, 0, 0); color: rgb(240, 240, 240); font-family: Helvetica; font-size: 12px; font-style: normal; font-variant-ligatures: normal; font-variant-caps: normal; font-weight: 400; letter-spacing: normal; orphans: 2; text-align: center; text-indent: 0px; text-transform: none; widows: 2; word-spacing: 0px; -webkit-text-stroke-width: 0px; background-color: rgb(27, 29, 30); text-decoration-thickness: initial; text-decoration-style: initial; text-decoration-color: initial;&quot;&gt;&lt;br style=&quot;border-color: rgb(0, 0, 0);&quot;&gt;&lt;/font&gt;&lt;span style=&quot;font-size: 15px;&quot;&gt;Si todo ejemplar del supertipo pertenece a alguno de los subtipos (Se diferencia por el círculo)&lt;/span&gt;" style="shape=partialRectangle;html=1;whiteSpace=wrap;connectable=0;strokeColor=inherit;overflow=hidden;fillColor=none;top=0;left=0;bottom=0;right=0;pointerEvents=1;" parent="IummRMU9RKJVwtvEGmO_-138" vertex="1">
          <mxGeometry x="960" width="238" height="240" as="geometry">
            <mxRectangle width="238" height="240" as="alternateBounds" />
          </mxGeometry>
        </mxCell>
        <mxCell id="IummRMU9RKJVwtvEGmO_-143" value="" style="shape=tableRow;horizontal=0;startSize=0;swimlaneHead=0;swimlaneBody=0;strokeColor=inherit;top=0;left=0;bottom=0;right=0;collapsible=0;dropTarget=0;fillColor=none;points=[[0,0.5],[1,0.5]];portConstraint=eastwest;" parent="IummRMU9RKJVwtvEGmO_-137" vertex="1">
          <mxGeometry y="240" width="1198" height="240" as="geometry" />
        </mxCell>
        <mxCell id="IummRMU9RKJVwtvEGmO_-144" value="" style="shape=partialRectangle;html=1;whiteSpace=wrap;connectable=0;strokeColor=inherit;overflow=hidden;fillColor=none;top=0;left=0;bottom=0;right=0;pointerEvents=1;" parent="IummRMU9RKJVwtvEGmO_-143" vertex="1">
          <mxGeometry width="242" height="240" as="geometry">
            <mxRectangle width="242" height="240" as="alternateBounds" />
          </mxGeometry>
        </mxCell>
        <mxCell id="IummRMU9RKJVwtvEGmO_-145" value="" style="shape=partialRectangle;html=1;whiteSpace=wrap;connectable=0;strokeColor=inherit;overflow=hidden;fillColor=none;top=0;left=0;bottom=0;right=0;pointerEvents=1;" parent="IummRMU9RKJVwtvEGmO_-143" vertex="1">
          <mxGeometry x="242" width="238" height="240" as="geometry">
            <mxRectangle width="238" height="240" as="alternateBounds" />
          </mxGeometry>
        </mxCell>
        <mxCell id="IummRMU9RKJVwtvEGmO_-146" value="&lt;br&gt;&lt;span style=&quot;border-color: rgb(0, 0, 0); color: rgb(240, 240, 240); font-family: Helvetica; font-style: normal; font-variant-ligatures: normal; font-variant-caps: normal; letter-spacing: normal; orphans: 2; text-align: center; text-indent: 0px; text-transform: none; widows: 2; word-spacing: 0px; -webkit-text-stroke-width: 0px; background-color: rgb(27, 29, 30); text-decoration-thickness: initial; text-decoration-style: initial; text-decoration-color: initial; font-weight: bold; font-size: 18px;&quot;&gt;RESTRICCIÓN DE EXCLUSIÓN&lt;/span&gt;&lt;br style=&quot;border-color: rgb(0, 0, 0); color: rgb(240, 240, 240); font-family: Helvetica; font-size: 12px; font-style: normal; font-variant-ligatures: normal; font-variant-caps: normal; font-weight: 400; letter-spacing: normal; orphans: 2; text-align: center; text-indent: 0px; text-transform: none; widows: 2; word-spacing: 0px; -webkit-text-stroke-width: 0px; background-color: rgb(27, 29, 30); text-decoration-thickness: initial; text-decoration-style: initial; text-decoration-color: initial;&quot;&gt;&lt;font style=&quot;border-color: rgb(0, 0, 0); color: rgb(240, 240, 240); font-family: Helvetica; font-size: 12px; font-style: normal; font-variant-ligatures: normal; font-variant-caps: normal; font-weight: 400; letter-spacing: normal; orphans: 2; text-align: center; text-indent: 0px; text-transform: none; widows: 2; word-spacing: 0px; -webkit-text-stroke-width: 0px; background-color: rgb(27, 29, 30); text-decoration-thickness: initial; text-decoration-style: initial; text-decoration-color: initial;&quot;&gt;&lt;br style=&quot;border-color: rgb(0, 0, 0);&quot;&gt;&lt;/font&gt;&lt;font style=&quot;border-color: rgb(0, 0, 0); color: rgb(240, 240, 240); font-family: Helvetica; font-style: normal; font-variant-ligatures: normal; font-variant-caps: normal; font-weight: 400; letter-spacing: normal; orphans: 2; text-align: center; text-indent: 0px; text-transform: none; widows: 2; word-spacing: 0px; -webkit-text-stroke-width: 0px; background-color: rgb(27, 29, 30); text-decoration-thickness: initial; text-decoration-style: initial; text-decoration-color: initial; font-size: 15px;&quot;&gt;Cuando las instáncias/entradas/registros de una entidad solo se pueden asociar con una única relación. O se produce una relación, u otra, pero nunca dos o más.&lt;br&gt;El resto de instáncias si pueden usar otras relaciones cumpliendo la misma restricción&lt;/font&gt;&lt;br&gt;" style="shape=partialRectangle;html=1;whiteSpace=wrap;connectable=0;strokeColor=inherit;overflow=hidden;fillColor=none;top=0;left=0;bottom=0;right=0;pointerEvents=1;" parent="IummRMU9RKJVwtvEGmO_-143" vertex="1">
          <mxGeometry x="480" width="242" height="240" as="geometry">
            <mxRectangle width="242" height="240" as="alternateBounds" />
          </mxGeometry>
        </mxCell>
        <mxCell id="IummRMU9RKJVwtvEGmO_-147" value="" style="shape=partialRectangle;html=1;whiteSpace=wrap;connectable=0;strokeColor=inherit;overflow=hidden;fillColor=none;top=0;left=0;bottom=0;right=0;pointerEvents=1;" parent="IummRMU9RKJVwtvEGmO_-143" vertex="1">
          <mxGeometry x="722" width="238" height="240" as="geometry">
            <mxRectangle width="238" height="240" as="alternateBounds" />
          </mxGeometry>
        </mxCell>
        <mxCell id="IummRMU9RKJVwtvEGmO_-189" value="&lt;br&gt;&lt;br style=&quot;border-color: rgb(0, 0, 0); color: rgb(240, 240, 240); font-family: Helvetica; font-size: 12px; font-style: normal; font-variant-ligatures: normal; font-variant-caps: normal; font-weight: 400; letter-spacing: normal; orphans: 2; text-align: center; text-indent: 0px; text-transform: none; widows: 2; word-spacing: 0px; -webkit-text-stroke-width: 0px; background-color: rgb(27, 29, 30); text-decoration-thickness: initial; text-decoration-style: initial; text-decoration-color: initial;&quot;&gt;&lt;span style=&quot;border-color: rgb(0, 0, 0); color: rgb(240, 240, 240); font-family: Helvetica; font-style: normal; font-variant-ligatures: normal; font-variant-caps: normal; letter-spacing: normal; orphans: 2; text-align: center; text-indent: 0px; text-transform: none; widows: 2; word-spacing: 0px; -webkit-text-stroke-width: 0px; text-decoration-thickness: initial; text-decoration-style: initial; text-decoration-color: initial; background-color: rgb(27, 29, 30); font-weight: bold; font-size: 18px;&quot;&gt;GENERALIZACIÓN&amp;nbsp;DE PARCIALIDAD&lt;/span&gt;&lt;br style=&quot;border-color: rgb(0, 0, 0); color: rgb(240, 240, 240); font-family: Helvetica; font-size: 12px; font-style: normal; font-variant-ligatures: normal; font-variant-caps: normal; font-weight: 400; letter-spacing: normal; orphans: 2; text-align: center; text-indent: 0px; text-transform: none; widows: 2; word-spacing: 0px; -webkit-text-stroke-width: 0px; text-decoration-thickness: initial; text-decoration-style: initial; text-decoration-color: initial; background-color: rgb(27, 29, 30);&quot;&gt;&lt;font style=&quot;border-color: rgb(0, 0, 0); color: rgb(240, 240, 240); font-family: Helvetica; font-size: 12px; font-style: normal; font-variant-ligatures: normal; font-variant-caps: normal; font-weight: 400; letter-spacing: normal; orphans: 2; text-align: center; text-indent: 0px; text-transform: none; widows: 2; word-spacing: 0px; -webkit-text-stroke-width: 0px; text-decoration-thickness: initial; text-decoration-style: initial; text-decoration-color: initial; background-color: rgb(27, 29, 30);&quot;&gt;&lt;br style=&quot;border-color: rgb(0, 0, 0);&quot;&gt;&lt;/font&gt;&lt;span style=&quot;border-color: rgb(0, 0, 0); color: rgb(240, 240, 240); font-family: Helvetica; font-style: normal; font-variant-ligatures: normal; font-variant-caps: normal; font-weight: 400; letter-spacing: normal; orphans: 2; text-align: center; text-indent: 0px; text-transform: none; widows: 2; word-spacing: 0px; -webkit-text-stroke-width: 0px; background-color: rgb(27, 29, 30); text-decoration-thickness: initial; text-decoration-style: initial; text-decoration-color: initial; font-size: 15px;&quot;&gt;Si no todos los ejemplares del supertipo pertenecen a alguno de los subtipos (Se diferencia por no llevar círculo)&lt;/span&gt;" style="shape=partialRectangle;html=1;whiteSpace=wrap;connectable=0;strokeColor=inherit;overflow=hidden;fillColor=none;top=0;left=0;bottom=0;right=0;pointerEvents=1;" parent="IummRMU9RKJVwtvEGmO_-143" vertex="1">
          <mxGeometry x="960" width="238" height="240" as="geometry">
            <mxRectangle width="238" height="240" as="alternateBounds" />
          </mxGeometry>
        </mxCell>
        <mxCell id="IummRMU9RKJVwtvEGmO_-148" value="" style="shape=tableRow;horizontal=0;startSize=0;swimlaneHead=0;swimlaneBody=0;strokeColor=inherit;top=0;left=0;bottom=0;right=0;collapsible=0;dropTarget=0;fillColor=none;points=[[0,0.5],[1,0.5]];portConstraint=eastwest;" parent="IummRMU9RKJVwtvEGmO_-137" vertex="1">
          <mxGeometry y="480" width="1198" height="240" as="geometry" />
        </mxCell>
        <mxCell id="IummRMU9RKJVwtvEGmO_-149" value="" style="shape=partialRectangle;html=1;whiteSpace=wrap;connectable=0;strokeColor=inherit;overflow=hidden;fillColor=none;top=0;left=0;bottom=0;right=0;pointerEvents=1;" parent="IummRMU9RKJVwtvEGmO_-148" vertex="1">
          <mxGeometry width="242" height="240" as="geometry">
            <mxRectangle width="242" height="240" as="alternateBounds" />
          </mxGeometry>
        </mxCell>
        <mxCell id="IummRMU9RKJVwtvEGmO_-150" value="" style="shape=partialRectangle;html=1;whiteSpace=wrap;connectable=0;strokeColor=inherit;overflow=hidden;fillColor=none;top=0;left=0;bottom=0;right=0;pointerEvents=1;" parent="IummRMU9RKJVwtvEGmO_-148" vertex="1">
          <mxGeometry x="242" width="238" height="240" as="geometry">
            <mxRectangle width="238" height="240" as="alternateBounds" />
          </mxGeometry>
        </mxCell>
        <mxCell id="IummRMU9RKJVwtvEGmO_-151" value="&lt;br&gt;&lt;span style=&quot;border-color: rgb(0, 0, 0); color: rgb(240, 240, 240); font-family: Helvetica; font-style: normal; font-variant-ligatures: normal; font-variant-caps: normal; letter-spacing: normal; orphans: 2; text-align: center; text-indent: 0px; text-transform: none; widows: 2; word-spacing: 0px; -webkit-text-stroke-width: 0px; background-color: rgb(27, 29, 30); text-decoration-thickness: initial; text-decoration-style: initial; text-decoration-color: initial; font-weight: bold; font-size: 18px;&quot;&gt;RESTRICCIÓN DE INCLUSIVIDAD&lt;/span&gt;&lt;br style=&quot;border-color: rgb(0, 0, 0); color: rgb(240, 240, 240); font-family: Helvetica; font-size: 12px; font-style: normal; font-variant-ligatures: normal; font-variant-caps: normal; font-weight: 400; letter-spacing: normal; orphans: 2; text-align: center; text-indent: 0px; text-transform: none; widows: 2; word-spacing: 0px; -webkit-text-stroke-width: 0px; background-color: rgb(27, 29, 30); text-decoration-thickness: initial; text-decoration-style: initial; text-decoration-color: initial;&quot;&gt;&lt;font style=&quot;border-color: rgb(0, 0, 0); color: rgb(240, 240, 240); font-family: Helvetica; font-size: 12px; font-style: normal; font-variant-ligatures: normal; font-variant-caps: normal; font-weight: 400; letter-spacing: normal; orphans: 2; text-align: center; text-indent: 0px; text-transform: none; widows: 2; word-spacing: 0px; -webkit-text-stroke-width: 0px; background-color: rgb(27, 29, 30); text-decoration-thickness: initial; text-decoration-style: initial; text-decoration-color: initial;&quot;&gt;&lt;br style=&quot;border-color: rgb(0, 0, 0);&quot;&gt;&lt;/font&gt;&lt;font style=&quot;border-color: rgb(0, 0, 0); color: rgb(240, 240, 240); font-family: Helvetica; font-style: normal; font-variant-ligatures: normal; font-variant-caps: normal; font-weight: 400; letter-spacing: normal; orphans: 2; text-align: center; text-indent: 0px; text-transform: none; widows: 2; word-spacing: 0px; -webkit-text-stroke-width: 0px; background-color: rgb(27, 29, 30); text-decoration-thickness: initial; text-decoration-style: initial; text-decoration-color: initial; font-size: 15px;&quot;&gt;Cuando es necesario que para que dos entidades se relacionen mediante una relación X, antes se hayan relacionado con esa entidad por una relación Y&lt;/font&gt;&lt;br&gt;" style="shape=partialRectangle;html=1;whiteSpace=wrap;connectable=0;strokeColor=inherit;overflow=hidden;fillColor=none;top=0;left=0;bottom=0;right=0;pointerEvents=1;" parent="IummRMU9RKJVwtvEGmO_-148" vertex="1">
          <mxGeometry x="480" width="242" height="240" as="geometry">
            <mxRectangle width="242" height="240" as="alternateBounds" />
          </mxGeometry>
        </mxCell>
        <mxCell id="IummRMU9RKJVwtvEGmO_-152" value="" style="shape=partialRectangle;html=1;whiteSpace=wrap;connectable=0;strokeColor=inherit;overflow=hidden;fillColor=none;top=0;left=0;bottom=0;right=0;pointerEvents=1;" parent="IummRMU9RKJVwtvEGmO_-148" vertex="1">
          <mxGeometry x="722" width="238" height="240" as="geometry">
            <mxRectangle width="238" height="240" as="alternateBounds" />
          </mxGeometry>
        </mxCell>
        <mxCell id="IummRMU9RKJVwtvEGmO_-190" value="&lt;br&gt;&lt;br style=&quot;border-color: rgb(0, 0, 0); color: rgb(240, 240, 240); font-family: Helvetica; font-size: 12px; font-style: normal; font-variant-ligatures: normal; font-variant-caps: normal; font-weight: 400; letter-spacing: normal; orphans: 2; text-align: center; text-indent: 0px; text-transform: none; widows: 2; word-spacing: 0px; -webkit-text-stroke-width: 0px; background-color: rgb(27, 29, 30); text-decoration-thickness: initial; text-decoration-style: initial; text-decoration-color: initial;&quot;&gt;&lt;br style=&quot;border-color: rgb(0, 0, 0); color: rgb(240, 240, 240); font-family: Helvetica; font-size: 12px; font-style: normal; font-variant-ligatures: normal; font-variant-caps: normal; font-weight: 400; letter-spacing: normal; orphans: 2; text-align: center; text-indent: 0px; text-transform: none; widows: 2; word-spacing: 0px; -webkit-text-stroke-width: 0px; text-decoration-thickness: initial; text-decoration-style: initial; text-decoration-color: initial; background-color: rgb(27, 29, 30);&quot;&gt;&lt;span style=&quot;border-color: rgb(0, 0, 0); color: rgb(240, 240, 240); font-family: Helvetica; font-style: normal; font-variant-ligatures: normal; font-variant-caps: normal; letter-spacing: normal; orphans: 2; text-align: center; text-indent: 0px; text-transform: none; widows: 2; word-spacing: 0px; -webkit-text-stroke-width: 0px; text-decoration-thickness: initial; text-decoration-style: initial; text-decoration-color: initial; background-color: rgb(27, 29, 30); font-weight: bold; font-size: 18px;&quot;&gt;GENERALIZACIÓN&amp;nbsp;DE SOLAPAMIENTO&lt;/span&gt;&lt;br style=&quot;border-color: rgb(0, 0, 0); color: rgb(240, 240, 240); font-family: Helvetica; font-size: 12px; font-style: normal; font-variant-ligatures: normal; font-variant-caps: normal; font-weight: 400; letter-spacing: normal; orphans: 2; text-align: center; text-indent: 0px; text-transform: none; widows: 2; word-spacing: 0px; -webkit-text-stroke-width: 0px; text-decoration-thickness: initial; text-decoration-style: initial; text-decoration-color: initial; background-color: rgb(27, 29, 30);&quot;&gt;&lt;font style=&quot;border-color: rgb(0, 0, 0); color: rgb(240, 240, 240); font-family: Helvetica; font-size: 12px; font-style: normal; font-variant-ligatures: normal; font-variant-caps: normal; font-weight: 400; letter-spacing: normal; orphans: 2; text-align: center; text-indent: 0px; text-transform: none; widows: 2; word-spacing: 0px; -webkit-text-stroke-width: 0px; text-decoration-thickness: initial; text-decoration-style: initial; text-decoration-color: initial; background-color: rgb(27, 29, 30);&quot;&gt;&lt;br style=&quot;border-color: rgb(0, 0, 0);&quot;&gt;&lt;/font&gt;&lt;span style=&quot;border-color: rgb(0, 0, 0); color: rgb(240, 240, 240); font-family: Helvetica; font-style: normal; font-variant-ligatures: normal; font-variant-caps: normal; font-weight: 400; letter-spacing: normal; orphans: 2; text-align: center; text-indent: 0px; text-transform: none; widows: 2; word-spacing: 0px; -webkit-text-stroke-width: 0px; text-decoration-thickness: initial; text-decoration-style: initial; text-decoration-color: initial; background-color: rgb(27, 29, 30); font-size: 15px;&quot;&gt;Si un mismo ejemplar del supertipo puede pertenecer a más de un subtipo (Se diferencia por la indicación demínimos y máximos)&lt;/span&gt;" style="shape=partialRectangle;html=1;whiteSpace=wrap;connectable=0;strokeColor=inherit;overflow=hidden;fillColor=none;top=0;left=0;bottom=0;right=0;pointerEvents=1;" parent="IummRMU9RKJVwtvEGmO_-148" vertex="1">
          <mxGeometry x="960" width="238" height="240" as="geometry">
            <mxRectangle width="238" height="240" as="alternateBounds" />
          </mxGeometry>
        </mxCell>
        <mxCell id="IummRMU9RKJVwtvEGmO_-153" value="" style="shape=tableRow;horizontal=0;startSize=0;swimlaneHead=0;swimlaneBody=0;strokeColor=inherit;top=0;left=0;bottom=0;right=0;collapsible=0;dropTarget=0;fillColor=none;points=[[0,0.5],[1,0.5]];portConstraint=eastwest;" parent="IummRMU9RKJVwtvEGmO_-137" vertex="1">
          <mxGeometry y="720" width="1198" height="240" as="geometry" />
        </mxCell>
        <mxCell id="IummRMU9RKJVwtvEGmO_-154" value="" style="shape=partialRectangle;html=1;whiteSpace=wrap;connectable=0;strokeColor=inherit;overflow=hidden;fillColor=none;top=0;left=0;bottom=0;right=0;pointerEvents=1;" parent="IummRMU9RKJVwtvEGmO_-153" vertex="1">
          <mxGeometry width="242" height="240" as="geometry">
            <mxRectangle width="242" height="240" as="alternateBounds" />
          </mxGeometry>
        </mxCell>
        <mxCell id="IummRMU9RKJVwtvEGmO_-155" value="" style="shape=partialRectangle;html=1;whiteSpace=wrap;connectable=0;strokeColor=inherit;overflow=hidden;fillColor=none;top=0;left=0;bottom=0;right=0;pointerEvents=1;" parent="IummRMU9RKJVwtvEGmO_-153" vertex="1">
          <mxGeometry x="242" width="238" height="240" as="geometry">
            <mxRectangle width="238" height="240" as="alternateBounds" />
          </mxGeometry>
        </mxCell>
        <mxCell id="IummRMU9RKJVwtvEGmO_-156" value="&lt;br&gt;&lt;br style=&quot;border-color: rgb(0, 0, 0); color: rgb(240, 240, 240); font-family: Helvetica; font-size: 12px; font-style: normal; font-variant-ligatures: normal; font-variant-caps: normal; font-weight: 400; letter-spacing: normal; orphans: 2; text-align: center; text-indent: 0px; text-transform: none; widows: 2; word-spacing: 0px; -webkit-text-stroke-width: 0px; background-color: rgb(27, 29, 30); text-decoration-thickness: initial; text-decoration-style: initial; text-decoration-color: initial;&quot;&gt;&lt;span style=&quot;border-color: rgb(0, 0, 0); color: rgb(240, 240, 240); font-family: Helvetica; font-style: normal; font-variant-ligatures: normal; font-variant-caps: normal; letter-spacing: normal; orphans: 2; text-align: center; text-indent: 0px; text-transform: none; widows: 2; word-spacing: 0px; -webkit-text-stroke-width: 0px; text-decoration-thickness: initial; text-decoration-style: initial; text-decoration-color: initial; background-color: rgb(27, 29, 30); font-weight: bold; font-size: 18px;&quot;&gt;RESTRICCIÓN DE INCLUSIÓN&lt;/span&gt;&lt;br style=&quot;border-color: rgb(0, 0, 0); color: rgb(240, 240, 240); font-family: Helvetica; font-size: 12px; font-style: normal; font-variant-ligatures: normal; font-variant-caps: normal; font-weight: 400; letter-spacing: normal; orphans: 2; text-align: center; text-indent: 0px; text-transform: none; widows: 2; word-spacing: 0px; -webkit-text-stroke-width: 0px; text-decoration-thickness: initial; text-decoration-style: initial; text-decoration-color: initial; background-color: rgb(27, 29, 30);&quot;&gt;&lt;font style=&quot;border-color: rgb(0, 0, 0); color: rgb(240, 240, 240); font-family: Helvetica; font-size: 12px; font-style: normal; font-variant-ligatures: normal; font-variant-caps: normal; font-weight: 400; letter-spacing: normal; orphans: 2; text-align: center; text-indent: 0px; text-transform: none; widows: 2; word-spacing: 0px; -webkit-text-stroke-width: 0px; text-decoration-thickness: initial; text-decoration-style: initial; text-decoration-color: initial; background-color: rgb(27, 29, 30);&quot;&gt;&lt;br style=&quot;border-color: rgb(0, 0, 0);&quot;&gt;&lt;/font&gt;&lt;font style=&quot;border-color: rgb(0, 0, 0); color: rgb(240, 240, 240); font-family: Helvetica; font-style: normal; font-variant-ligatures: normal; font-variant-caps: normal; font-weight: 400; letter-spacing: normal; orphans: 2; text-align: center; text-indent: 0px; text-transform: none; widows: 2; word-spacing: 0px; -webkit-text-stroke-width: 0px; text-decoration-thickness: initial; text-decoration-style: initial; text-decoration-color: initial; background-color: rgb(27, 29, 30); font-size: 15px;&quot;&gt;Para que una instáncia de la entidad 1 se relacione con una instancia de la entidad 2 mediante la relación 1, debe haber participado antes en la relación 2&lt;/font&gt;" style="shape=partialRectangle;html=1;whiteSpace=wrap;connectable=0;strokeColor=inherit;overflow=hidden;fillColor=none;top=0;left=0;bottom=0;right=0;pointerEvents=1;" parent="IummRMU9RKJVwtvEGmO_-153" vertex="1">
          <mxGeometry x="480" width="242" height="240" as="geometry">
            <mxRectangle width="242" height="240" as="alternateBounds" />
          </mxGeometry>
        </mxCell>
        <mxCell id="IummRMU9RKJVwtvEGmO_-157" value="" style="shape=partialRectangle;html=1;whiteSpace=wrap;connectable=0;strokeColor=inherit;overflow=hidden;fillColor=none;top=0;left=0;bottom=0;right=0;pointerEvents=1;" parent="IummRMU9RKJVwtvEGmO_-153" vertex="1">
          <mxGeometry x="722" width="238" height="240" as="geometry">
            <mxRectangle width="238" height="240" as="alternateBounds" />
          </mxGeometry>
        </mxCell>
        <mxCell id="IummRMU9RKJVwtvEGmO_-191" value="&lt;br&gt;&lt;br style=&quot;border-color: rgb(0, 0, 0); color: rgb(240, 240, 240); font-family: Helvetica; font-size: 12px; font-style: normal; font-variant-ligatures: normal; font-variant-caps: normal; font-weight: 400; letter-spacing: normal; orphans: 2; text-align: center; text-indent: 0px; text-transform: none; widows: 2; word-spacing: 0px; -webkit-text-stroke-width: 0px; background-color: rgb(27, 29, 30); text-decoration-thickness: initial; text-decoration-style: initial; text-decoration-color: initial;&quot;&gt;&lt;span style=&quot;border-color: rgb(0, 0, 0); color: rgb(240, 240, 240); font-family: Helvetica; font-style: normal; font-variant-ligatures: normal; font-variant-caps: normal; letter-spacing: normal; orphans: 2; text-align: center; text-indent: 0px; text-transform: none; widows: 2; word-spacing: 0px; -webkit-text-stroke-width: 0px; text-decoration-thickness: initial; text-decoration-style: initial; text-decoration-color: initial; background-color: rgb(27, 29, 30); font-weight: bold; font-size: 18px;&quot;&gt;GENERALIZACIÓN&amp;nbsp;DE EXCLUSIVIDAD&lt;/span&gt;&lt;br style=&quot;border-color: rgb(0, 0, 0); color: rgb(240, 240, 240); font-family: Helvetica; font-size: 12px; font-style: normal; font-variant-ligatures: normal; font-variant-caps: normal; font-weight: 400; letter-spacing: normal; orphans: 2; text-align: center; text-indent: 0px; text-transform: none; widows: 2; word-spacing: 0px; -webkit-text-stroke-width: 0px; text-decoration-thickness: initial; text-decoration-style: initial; text-decoration-color: initial; background-color: rgb(27, 29, 30);&quot;&gt;&lt;font style=&quot;border-color: rgb(0, 0, 0); color: rgb(240, 240, 240); font-family: Helvetica; font-size: 12px; font-style: normal; font-variant-ligatures: normal; font-variant-caps: normal; font-weight: 400; letter-spacing: normal; orphans: 2; text-align: center; text-indent: 0px; text-transform: none; widows: 2; word-spacing: 0px; -webkit-text-stroke-width: 0px; text-decoration-thickness: initial; text-decoration-style: initial; text-decoration-color: initial; background-color: rgb(27, 29, 30);&quot;&gt;&lt;br style=&quot;border-color: rgb(0, 0, 0);&quot;&gt;&lt;/font&gt;&lt;span style=&quot;border-color: rgb(0, 0, 0); color: rgb(240, 240, 240); font-family: Helvetica; font-style: normal; font-variant-ligatures: normal; font-variant-caps: normal; font-weight: 400; letter-spacing: normal; orphans: 2; text-align: center; text-indent: 0px; text-transform: none; widows: 2; word-spacing: 0px; -webkit-text-stroke-width: 0px; background-color: rgb(27, 29, 30); text-decoration-thickness: initial; text-decoration-style: initial; text-decoration-color: initial; font-size: 15px;&quot;&gt;Si todo ejemplar del supertipo pertenece a solo un subtipo (Se diferencia por la línea curva)&lt;/span&gt;" style="shape=partialRectangle;html=1;whiteSpace=wrap;connectable=0;strokeColor=inherit;overflow=hidden;fillColor=none;top=0;left=0;bottom=0;right=0;pointerEvents=1;" parent="IummRMU9RKJVwtvEGmO_-153" vertex="1">
          <mxGeometry x="960" width="238" height="240" as="geometry">
            <mxRectangle width="238" height="240" as="alternateBounds" />
          </mxGeometry>
        </mxCell>
        <mxCell id="IummRMU9RKJVwtvEGmO_-158" value="" style="shape=tableRow;horizontal=0;startSize=0;swimlaneHead=0;swimlaneBody=0;strokeColor=inherit;top=0;left=0;bottom=0;right=0;collapsible=0;dropTarget=0;fillColor=none;points=[[0,0.5],[1,0.5]];portConstraint=eastwest;" parent="IummRMU9RKJVwtvEGmO_-137" vertex="1">
          <mxGeometry y="960" width="1198" height="240" as="geometry" />
        </mxCell>
        <mxCell id="IummRMU9RKJVwtvEGmO_-159" value="" style="shape=partialRectangle;html=1;whiteSpace=wrap;connectable=0;strokeColor=inherit;overflow=hidden;fillColor=none;top=0;left=0;bottom=0;right=0;pointerEvents=1;" parent="IummRMU9RKJVwtvEGmO_-158" vertex="1">
          <mxGeometry width="242" height="240" as="geometry">
            <mxRectangle width="242" height="240" as="alternateBounds" />
          </mxGeometry>
        </mxCell>
        <mxCell id="IummRMU9RKJVwtvEGmO_-160" value="" style="shape=partialRectangle;html=1;whiteSpace=wrap;connectable=0;strokeColor=inherit;overflow=hidden;fillColor=none;top=0;left=0;bottom=0;right=0;pointerEvents=1;" parent="IummRMU9RKJVwtvEGmO_-158" vertex="1">
          <mxGeometry x="242" width="238" height="240" as="geometry">
            <mxRectangle width="238" height="240" as="alternateBounds" />
          </mxGeometry>
        </mxCell>
        <mxCell id="IummRMU9RKJVwtvEGmO_-161" value="" style="shape=partialRectangle;html=1;whiteSpace=wrap;connectable=0;strokeColor=inherit;overflow=hidden;fillColor=none;top=0;left=0;bottom=0;right=0;pointerEvents=1;" parent="IummRMU9RKJVwtvEGmO_-158" vertex="1">
          <mxGeometry x="480" width="242" height="240" as="geometry">
            <mxRectangle width="242" height="240" as="alternateBounds" />
          </mxGeometry>
        </mxCell>
        <mxCell id="IummRMU9RKJVwtvEGmO_-162" value="&lt;br style=&quot;border-color: rgb(0, 0, 0); color: rgb(240, 240, 240); font-family: Helvetica; font-size: 12px; font-style: normal; font-variant-ligatures: normal; font-variant-caps: normal; font-weight: 400; letter-spacing: normal; orphans: 2; text-align: center; text-indent: 0px; text-transform: none; widows: 2; word-spacing: 0px; -webkit-text-stroke-width: 0px; text-decoration-thickness: initial; text-decoration-style: initial; text-decoration-color: initial; background-color: rgb(27, 29, 30);&quot;&gt;&lt;span style=&quot;border-color: rgb(0, 0, 0); color: rgb(240, 240, 240); font-family: Helvetica; font-style: normal; font-variant-ligatures: normal; font-variant-caps: normal; letter-spacing: normal; orphans: 2; text-align: center; text-indent: 0px; text-transform: none; widows: 2; word-spacing: 0px; -webkit-text-stroke-width: 0px; text-decoration-thickness: initial; text-decoration-style: initial; text-decoration-color: initial; background-color: rgb(27, 29, 30); font-weight: bold; font-size: 18px;&quot;&gt;AGREGACIÓN&lt;/span&gt;&lt;br style=&quot;border-color: rgb(0, 0, 0); color: rgb(240, 240, 240); font-family: Helvetica; font-size: 12px; font-style: normal; font-variant-ligatures: normal; font-variant-caps: normal; font-weight: 400; letter-spacing: normal; orphans: 2; text-align: center; text-indent: 0px; text-transform: none; widows: 2; word-spacing: 0px; -webkit-text-stroke-width: 0px; text-decoration-thickness: initial; text-decoration-style: initial; text-decoration-color: initial; background-color: rgb(27, 29, 30);&quot;&gt;&lt;font style=&quot;border-color: rgb(0, 0, 0); color: rgb(240, 240, 240); font-family: Helvetica; font-size: 12px; font-style: normal; font-variant-ligatures: normal; font-variant-caps: normal; font-weight: 400; letter-spacing: normal; orphans: 2; text-align: center; text-indent: 0px; text-transform: none; widows: 2; word-spacing: 0px; -webkit-text-stroke-width: 0px; text-decoration-thickness: initial; text-decoration-style: initial; text-decoration-color: initial; background-color: rgb(27, 29, 30);&quot;&gt;&lt;br style=&quot;border-color: rgb(0, 0, 0);&quot;&gt;&lt;/font&gt;&lt;span style=&quot;border-color: rgb(0, 0, 0); color: rgb(240, 240, 240); font-family: Helvetica; font-style: normal; font-variant-ligatures: normal; font-variant-caps: normal; font-weight: 400; letter-spacing: normal; orphans: 2; text-align: center; text-indent: 0px; text-transform: none; widows: 2; word-spacing: 0px; -webkit-text-stroke-width: 0px; text-decoration-thickness: initial; text-decoration-style: initial; text-decoration-color: initial; background-color: rgb(27, 29, 30); font-size: 15px;&quot;&gt;Se usa para representar relaciones a relaciones englobando las entidades y la relación de a la que se quiere relacionar en una entidad agregada que se considera una sola entidad o para expresar relaciones entre entidades y relaciones&lt;/span&gt;&lt;br&gt;" style="shape=partialRectangle;html=1;whiteSpace=wrap;connectable=0;strokeColor=inherit;overflow=hidden;fillColor=none;top=0;left=0;bottom=0;right=0;pointerEvents=1;" parent="IummRMU9RKJVwtvEGmO_-158" vertex="1">
          <mxGeometry x="722" width="238" height="240" as="geometry">
            <mxRectangle width="238" height="240" as="alternateBounds" />
          </mxGeometry>
        </mxCell>
        <mxCell id="IummRMU9RKJVwtvEGmO_-192" style="shape=partialRectangle;html=1;whiteSpace=wrap;connectable=0;strokeColor=inherit;overflow=hidden;fillColor=none;top=0;left=0;bottom=0;right=0;pointerEvents=1;" parent="IummRMU9RKJVwtvEGmO_-158" vertex="1">
          <mxGeometry x="960" width="238" height="240" as="geometry">
            <mxRectangle width="238" height="240" as="alternateBounds" />
          </mxGeometry>
        </mxCell>
        <mxCell id="pnEO92WWaM8mGBFTtn49-9" value="" style="rounded=0;whiteSpace=wrap;html=1;" parent="1" vertex="1">
          <mxGeometry x="800" y="280" width="480" height="240" as="geometry" />
        </mxCell>
        <mxCell id="IummRMU9RKJVwtvEGmO_-21" value="" style="shape=table;startSize=0;container=1;collapsible=0;childLayout=tableLayout;" parent="1" vertex="1">
          <mxGeometry x="40" y="40" width="640" height="840" as="geometry" />
        </mxCell>
        <mxCell id="IummRMU9RKJVwtvEGmO_-22" value="" style="shape=tableRow;horizontal=0;startSize=0;swimlaneHead=0;swimlaneBody=0;strokeColor=inherit;top=0;left=0;bottom=0;right=0;collapsible=0;dropTarget=0;fillColor=none;points=[[0,0.5],[1,0.5]];portConstraint=eastwest;" parent="IummRMU9RKJVwtvEGmO_-21" vertex="1">
          <mxGeometry width="640" height="120" as="geometry" />
        </mxCell>
        <mxCell id="IummRMU9RKJVwtvEGmO_-23" value="" style="shape=partialRectangle;html=1;whiteSpace=wrap;connectable=0;strokeColor=inherit;overflow=hidden;fillColor=none;top=0;left=0;bottom=0;right=0;pointerEvents=1;" parent="IummRMU9RKJVwtvEGmO_-22" vertex="1">
          <mxGeometry width="161" height="120" as="geometry">
            <mxRectangle width="161" height="120" as="alternateBounds" />
          </mxGeometry>
        </mxCell>
        <mxCell id="IummRMU9RKJVwtvEGmO_-24" value="&lt;b style=&quot;font-size: 18px;&quot;&gt;RELACIÓN&lt;/b&gt;" style="shape=partialRectangle;html=1;whiteSpace=wrap;connectable=0;strokeColor=inherit;overflow=hidden;fillColor=none;top=0;left=0;bottom=0;right=0;pointerEvents=1;" parent="IummRMU9RKJVwtvEGmO_-22" vertex="1">
          <mxGeometry x="161" width="159" height="120" as="geometry">
            <mxRectangle width="159" height="120" as="alternateBounds" />
          </mxGeometry>
        </mxCell>
        <mxCell id="IummRMU9RKJVwtvEGmO_-25" value="" style="shape=partialRectangle;html=1;whiteSpace=wrap;connectable=0;strokeColor=inherit;overflow=hidden;fillColor=none;top=0;left=0;bottom=0;right=0;pointerEvents=1;" parent="IummRMU9RKJVwtvEGmO_-22" vertex="1">
          <mxGeometry x="320" width="161" height="120" as="geometry">
            <mxRectangle width="161" height="120" as="alternateBounds" />
          </mxGeometry>
        </mxCell>
        <mxCell id="IummRMU9RKJVwtvEGmO_-26" value="&lt;b style=&quot;font-size: 18px;&quot;&gt;ATRIBUTO&lt;br&gt;SIMPLE&lt;/b&gt;" style="shape=partialRectangle;html=1;whiteSpace=wrap;connectable=0;strokeColor=inherit;overflow=hidden;fillColor=none;top=0;left=0;bottom=0;right=0;pointerEvents=1;" parent="IummRMU9RKJVwtvEGmO_-22" vertex="1">
          <mxGeometry x="481" width="159" height="120" as="geometry">
            <mxRectangle width="159" height="120" as="alternateBounds" />
          </mxGeometry>
        </mxCell>
        <mxCell id="IummRMU9RKJVwtvEGmO_-27" value="" style="shape=tableRow;horizontal=0;startSize=0;swimlaneHead=0;swimlaneBody=0;strokeColor=inherit;top=0;left=0;bottom=0;right=0;collapsible=0;dropTarget=0;fillColor=none;points=[[0,0.5],[1,0.5]];portConstraint=eastwest;" parent="IummRMU9RKJVwtvEGmO_-21" vertex="1">
          <mxGeometry y="120" width="640" height="120" as="geometry" />
        </mxCell>
        <mxCell id="IummRMU9RKJVwtvEGmO_-28" value="" style="shape=partialRectangle;html=1;whiteSpace=wrap;connectable=0;strokeColor=inherit;overflow=hidden;fillColor=none;top=0;left=0;bottom=0;right=0;pointerEvents=1;" parent="IummRMU9RKJVwtvEGmO_-27" vertex="1">
          <mxGeometry width="161" height="120" as="geometry">
            <mxRectangle width="161" height="120" as="alternateBounds" />
          </mxGeometry>
        </mxCell>
        <mxCell id="IummRMU9RKJVwtvEGmO_-29" value="&lt;b style=&quot;font-size: 18px;&quot;&gt;RELACIÓN &lt;br&gt;UNO A UNO&lt;/b&gt;" style="shape=partialRectangle;html=1;whiteSpace=wrap;connectable=0;strokeColor=inherit;overflow=hidden;fillColor=none;top=0;left=0;bottom=0;right=0;pointerEvents=1;" parent="IummRMU9RKJVwtvEGmO_-27" vertex="1">
          <mxGeometry x="161" width="159" height="120" as="geometry">
            <mxRectangle width="159" height="120" as="alternateBounds" />
          </mxGeometry>
        </mxCell>
        <mxCell id="IummRMU9RKJVwtvEGmO_-30" value="" style="shape=partialRectangle;html=1;whiteSpace=wrap;connectable=0;strokeColor=inherit;overflow=hidden;fillColor=none;top=0;left=0;bottom=0;right=0;pointerEvents=1;" parent="IummRMU9RKJVwtvEGmO_-27" vertex="1">
          <mxGeometry x="320" width="161" height="120" as="geometry">
            <mxRectangle width="161" height="120" as="alternateBounds" />
          </mxGeometry>
        </mxCell>
        <mxCell id="IummRMU9RKJVwtvEGmO_-31" value="&lt;b style=&quot;font-size: 18px;&quot;&gt;ATRIBUTO&lt;br&gt;COMPUESTO&lt;/b&gt;" style="shape=partialRectangle;html=1;whiteSpace=wrap;connectable=0;strokeColor=inherit;overflow=hidden;fillColor=none;top=0;left=0;bottom=0;right=0;pointerEvents=1;" parent="IummRMU9RKJVwtvEGmO_-27" vertex="1">
          <mxGeometry x="481" width="159" height="120" as="geometry">
            <mxRectangle width="159" height="120" as="alternateBounds" />
          </mxGeometry>
        </mxCell>
        <mxCell id="IummRMU9RKJVwtvEGmO_-32" value="" style="shape=tableRow;horizontal=0;startSize=0;swimlaneHead=0;swimlaneBody=0;strokeColor=inherit;top=0;left=0;bottom=0;right=0;collapsible=0;dropTarget=0;fillColor=none;points=[[0,0.5],[1,0.5]];portConstraint=eastwest;" parent="IummRMU9RKJVwtvEGmO_-21" vertex="1">
          <mxGeometry y="240" width="640" height="120" as="geometry" />
        </mxCell>
        <mxCell id="IummRMU9RKJVwtvEGmO_-33" value="" style="shape=partialRectangle;html=1;whiteSpace=wrap;connectable=0;strokeColor=inherit;overflow=hidden;fillColor=none;top=0;left=0;bottom=0;right=0;pointerEvents=1;" parent="IummRMU9RKJVwtvEGmO_-32" vertex="1">
          <mxGeometry width="161" height="120" as="geometry">
            <mxRectangle width="161" height="120" as="alternateBounds" />
          </mxGeometry>
        </mxCell>
        <mxCell id="IummRMU9RKJVwtvEGmO_-34" value="&lt;b style=&quot;font-size: 18px;&quot;&gt;RELACIÓN&lt;br&gt;UNO A&lt;br&gt;MUCHOS&lt;/b&gt;" style="shape=partialRectangle;html=1;whiteSpace=wrap;connectable=0;strokeColor=inherit;overflow=hidden;fillColor=none;top=0;left=0;bottom=0;right=0;pointerEvents=1;" parent="IummRMU9RKJVwtvEGmO_-32" vertex="1">
          <mxGeometry x="161" width="159" height="120" as="geometry">
            <mxRectangle width="159" height="120" as="alternateBounds" />
          </mxGeometry>
        </mxCell>
        <mxCell id="IummRMU9RKJVwtvEGmO_-35" value="" style="shape=partialRectangle;html=1;whiteSpace=wrap;connectable=0;strokeColor=inherit;overflow=hidden;fillColor=none;top=0;left=0;bottom=0;right=0;pointerEvents=1;" parent="IummRMU9RKJVwtvEGmO_-32" vertex="1">
          <mxGeometry x="320" width="161" height="120" as="geometry">
            <mxRectangle width="161" height="120" as="alternateBounds" />
          </mxGeometry>
        </mxCell>
        <mxCell id="IummRMU9RKJVwtvEGmO_-36" value="&lt;b style=&quot;font-size: 18px;&quot;&gt;ATRIBUTO&lt;br&gt;MULTIVALUADO&lt;/b&gt;" style="shape=partialRectangle;html=1;whiteSpace=wrap;connectable=0;strokeColor=inherit;overflow=hidden;fillColor=none;top=0;left=0;bottom=0;right=0;pointerEvents=1;" parent="IummRMU9RKJVwtvEGmO_-32" vertex="1">
          <mxGeometry x="481" width="159" height="120" as="geometry">
            <mxRectangle width="159" height="120" as="alternateBounds" />
          </mxGeometry>
        </mxCell>
        <mxCell id="IummRMU9RKJVwtvEGmO_-37" value="" style="shape=tableRow;horizontal=0;startSize=0;swimlaneHead=0;swimlaneBody=0;strokeColor=inherit;top=0;left=0;bottom=0;right=0;collapsible=0;dropTarget=0;fillColor=none;points=[[0,0.5],[1,0.5]];portConstraint=eastwest;" parent="IummRMU9RKJVwtvEGmO_-21" vertex="1">
          <mxGeometry y="360" width="640" height="120" as="geometry" />
        </mxCell>
        <mxCell id="IummRMU9RKJVwtvEGmO_-38" value="" style="shape=partialRectangle;html=1;whiteSpace=wrap;connectable=0;strokeColor=inherit;overflow=hidden;fillColor=none;top=0;left=0;bottom=0;right=0;pointerEvents=1;" parent="IummRMU9RKJVwtvEGmO_-37" vertex="1">
          <mxGeometry width="161" height="120" as="geometry">
            <mxRectangle width="161" height="120" as="alternateBounds" />
          </mxGeometry>
        </mxCell>
        <mxCell id="IummRMU9RKJVwtvEGmO_-39" value="&lt;b style=&quot;border-color: rgb(0, 0, 0); color: rgb(240, 240, 240); font-family: Helvetica; font-style: normal; font-variant-ligatures: normal; font-variant-caps: normal; letter-spacing: normal; orphans: 2; text-align: center; text-indent: 0px; text-transform: none; widows: 2; word-spacing: 0px; -webkit-text-stroke-width: 0px; background-color: rgb(27, 29, 30); text-decoration-thickness: initial; text-decoration-style: initial; text-decoration-color: initial; font-size: 18px;&quot;&gt;RELACIÓN &lt;br&gt;MUCHOS A&lt;br&gt;MUCHOS&lt;/b&gt;" style="shape=partialRectangle;html=1;whiteSpace=wrap;connectable=0;strokeColor=inherit;overflow=hidden;fillColor=none;top=0;left=0;bottom=0;right=0;pointerEvents=1;" parent="IummRMU9RKJVwtvEGmO_-37" vertex="1">
          <mxGeometry x="161" width="159" height="120" as="geometry">
            <mxRectangle width="159" height="120" as="alternateBounds" />
          </mxGeometry>
        </mxCell>
        <mxCell id="IummRMU9RKJVwtvEGmO_-40" value="" style="shape=partialRectangle;html=1;whiteSpace=wrap;connectable=0;strokeColor=inherit;overflow=hidden;fillColor=none;top=0;left=0;bottom=0;right=0;pointerEvents=1;" parent="IummRMU9RKJVwtvEGmO_-37" vertex="1">
          <mxGeometry x="320" width="161" height="120" as="geometry">
            <mxRectangle width="161" height="120" as="alternateBounds" />
          </mxGeometry>
        </mxCell>
        <mxCell id="IummRMU9RKJVwtvEGmO_-41" value="&lt;br&gt;&lt;b style=&quot;border-color: rgb(0, 0, 0); color: rgb(240, 240, 240); font-family: Helvetica; font-style: normal; font-variant-ligatures: normal; font-variant-caps: normal; letter-spacing: normal; orphans: 2; text-align: center; text-indent: 0px; text-transform: none; widows: 2; word-spacing: 0px; -webkit-text-stroke-width: 0px; background-color: rgb(27, 29, 30); text-decoration-thickness: initial; text-decoration-style: initial; text-decoration-color: initial; font-size: 18px;&quot;&gt;ATRIBUTO&lt;br style=&quot;border-color: rgb(0, 0, 0);&quot;&gt;DERIVADO&lt;/b&gt;&lt;br&gt;" style="shape=partialRectangle;html=1;whiteSpace=wrap;connectable=0;strokeColor=inherit;overflow=hidden;fillColor=none;top=0;left=0;bottom=0;right=0;pointerEvents=1;" parent="IummRMU9RKJVwtvEGmO_-37" vertex="1">
          <mxGeometry x="481" width="159" height="120" as="geometry">
            <mxRectangle width="159" height="120" as="alternateBounds" />
          </mxGeometry>
        </mxCell>
        <mxCell id="IummRMU9RKJVwtvEGmO_-42" value="" style="shape=tableRow;horizontal=0;startSize=0;swimlaneHead=0;swimlaneBody=0;strokeColor=inherit;top=0;left=0;bottom=0;right=0;collapsible=0;dropTarget=0;fillColor=none;points=[[0,0.5],[1,0.5]];portConstraint=eastwest;" parent="IummRMU9RKJVwtvEGmO_-21" vertex="1">
          <mxGeometry y="480" width="640" height="120" as="geometry" />
        </mxCell>
        <mxCell id="IummRMU9RKJVwtvEGmO_-43" value="" style="shape=partialRectangle;html=1;whiteSpace=wrap;connectable=0;strokeColor=inherit;overflow=hidden;fillColor=none;top=0;left=0;bottom=0;right=0;pointerEvents=1;" parent="IummRMU9RKJVwtvEGmO_-42" vertex="1">
          <mxGeometry width="161" height="120" as="geometry">
            <mxRectangle width="161" height="120" as="alternateBounds" />
          </mxGeometry>
        </mxCell>
        <mxCell id="IummRMU9RKJVwtvEGmO_-44" value="&lt;b style=&quot;font-size: 18px;&quot;&gt;CARDINALIDAD DE ENTIDAD&lt;/b&gt;" style="shape=partialRectangle;html=1;whiteSpace=wrap;connectable=0;strokeColor=inherit;overflow=hidden;fillColor=none;top=0;left=0;bottom=0;right=0;pointerEvents=1;" parent="IummRMU9RKJVwtvEGmO_-42" vertex="1">
          <mxGeometry x="161" width="159" height="120" as="geometry">
            <mxRectangle width="159" height="120" as="alternateBounds" />
          </mxGeometry>
        </mxCell>
        <mxCell id="IummRMU9RKJVwtvEGmO_-45" value="" style="shape=partialRectangle;html=1;whiteSpace=wrap;connectable=0;strokeColor=inherit;overflow=hidden;fillColor=none;top=0;left=0;bottom=0;right=0;pointerEvents=1;" parent="IummRMU9RKJVwtvEGmO_-42" vertex="1">
          <mxGeometry x="320" width="161" height="120" as="geometry">
            <mxRectangle width="161" height="120" as="alternateBounds" />
          </mxGeometry>
        </mxCell>
        <mxCell id="IummRMU9RKJVwtvEGmO_-46" value="&lt;br&gt;&lt;b style=&quot;font-size: 18px;&quot;&gt;ATRIBUTO&lt;br&gt;OPCIONAL&lt;/b&gt;" style="shape=partialRectangle;html=1;whiteSpace=wrap;connectable=0;strokeColor=inherit;overflow=hidden;fillColor=none;top=0;left=0;bottom=0;right=0;pointerEvents=1;" parent="IummRMU9RKJVwtvEGmO_-42" vertex="1">
          <mxGeometry x="481" width="159" height="120" as="geometry">
            <mxRectangle width="159" height="120" as="alternateBounds" />
          </mxGeometry>
        </mxCell>
        <mxCell id="IummRMU9RKJVwtvEGmO_-47" value="" style="shape=tableRow;horizontal=0;startSize=0;swimlaneHead=0;swimlaneBody=0;strokeColor=inherit;top=0;left=0;bottom=0;right=0;collapsible=0;dropTarget=0;fillColor=none;points=[[0,0.5],[1,0.5]];portConstraint=eastwest;" parent="IummRMU9RKJVwtvEGmO_-21" vertex="1">
          <mxGeometry y="600" width="640" height="120" as="geometry" />
        </mxCell>
        <mxCell id="IummRMU9RKJVwtvEGmO_-48" value="" style="shape=partialRectangle;html=1;whiteSpace=wrap;connectable=0;strokeColor=inherit;overflow=hidden;fillColor=none;top=0;left=0;bottom=0;right=0;pointerEvents=1;" parent="IummRMU9RKJVwtvEGmO_-47" vertex="1">
          <mxGeometry width="161" height="120" as="geometry">
            <mxRectangle width="161" height="120" as="alternateBounds" />
          </mxGeometry>
        </mxCell>
        <mxCell id="IummRMU9RKJVwtvEGmO_-49" value="&lt;b style=&quot;font-size: 18px;&quot;&gt;ENTIDAD&lt;/b&gt;" style="shape=partialRectangle;html=1;whiteSpace=wrap;connectable=0;strokeColor=inherit;overflow=hidden;fillColor=none;top=0;left=0;bottom=0;right=0;pointerEvents=1;" parent="IummRMU9RKJVwtvEGmO_-47" vertex="1">
          <mxGeometry x="161" width="159" height="120" as="geometry">
            <mxRectangle width="159" height="120" as="alternateBounds" />
          </mxGeometry>
        </mxCell>
        <mxCell id="IummRMU9RKJVwtvEGmO_-50" value="" style="shape=partialRectangle;html=1;whiteSpace=wrap;connectable=0;strokeColor=inherit;overflow=hidden;fillColor=none;top=0;left=0;bottom=0;right=0;pointerEvents=1;" parent="IummRMU9RKJVwtvEGmO_-47" vertex="1">
          <mxGeometry x="320" width="161" height="120" as="geometry">
            <mxRectangle width="161" height="120" as="alternateBounds" />
          </mxGeometry>
        </mxCell>
        <mxCell id="IummRMU9RKJVwtvEGmO_-51" value="&lt;br&gt;&lt;b style=&quot;font-size: 18px;&quot;&gt;CLAVE&lt;br&gt;PRIMARIA&lt;br&gt;&lt;/b&gt;" style="shape=partialRectangle;html=1;whiteSpace=wrap;connectable=0;strokeColor=inherit;overflow=hidden;fillColor=none;top=0;left=0;bottom=0;right=0;pointerEvents=1;" parent="IummRMU9RKJVwtvEGmO_-47" vertex="1">
          <mxGeometry x="481" width="159" height="120" as="geometry">
            <mxRectangle width="159" height="120" as="alternateBounds" />
          </mxGeometry>
        </mxCell>
        <mxCell id="IummRMU9RKJVwtvEGmO_-52" value="" style="shape=tableRow;horizontal=0;startSize=0;swimlaneHead=0;swimlaneBody=0;strokeColor=inherit;top=0;left=0;bottom=0;right=0;collapsible=0;dropTarget=0;fillColor=none;points=[[0,0.5],[1,0.5]];portConstraint=eastwest;" parent="IummRMU9RKJVwtvEGmO_-21" vertex="1">
          <mxGeometry y="720" width="640" height="120" as="geometry" />
        </mxCell>
        <mxCell id="IummRMU9RKJVwtvEGmO_-53" value="" style="shape=partialRectangle;html=1;whiteSpace=wrap;connectable=0;strokeColor=inherit;overflow=hidden;fillColor=none;top=0;left=0;bottom=0;right=0;pointerEvents=1;" parent="IummRMU9RKJVwtvEGmO_-52" vertex="1">
          <mxGeometry width="161" height="120" as="geometry">
            <mxRectangle width="161" height="120" as="alternateBounds" />
          </mxGeometry>
        </mxCell>
        <mxCell id="IummRMU9RKJVwtvEGmO_-54" value="&lt;b style=&quot;font-size: 18px;&quot;&gt;ENTIDAD &lt;br&gt;DÉBIL&lt;/b&gt;" style="shape=partialRectangle;html=1;whiteSpace=wrap;connectable=0;strokeColor=inherit;overflow=hidden;fillColor=none;top=0;left=0;bottom=0;right=0;pointerEvents=1;" parent="IummRMU9RKJVwtvEGmO_-52" vertex="1">
          <mxGeometry x="161" width="159" height="120" as="geometry">
            <mxRectangle width="159" height="120" as="alternateBounds" />
          </mxGeometry>
        </mxCell>
        <mxCell id="IummRMU9RKJVwtvEGmO_-55" value="" style="shape=partialRectangle;html=1;whiteSpace=wrap;connectable=0;strokeColor=inherit;overflow=hidden;fillColor=none;top=0;left=0;bottom=0;right=0;pointerEvents=1;" parent="IummRMU9RKJVwtvEGmO_-52" vertex="1">
          <mxGeometry x="320" width="161" height="120" as="geometry">
            <mxRectangle width="161" height="120" as="alternateBounds" />
          </mxGeometry>
        </mxCell>
        <mxCell id="IummRMU9RKJVwtvEGmO_-56" value="&lt;br&gt;&lt;b style=&quot;font-size: 18px;&quot;&gt;CLAVE&lt;br&gt;DÉBIL O&lt;br&gt;ALTERNATIVA&lt;/b&gt;" style="shape=partialRectangle;html=1;whiteSpace=wrap;connectable=0;strokeColor=inherit;overflow=hidden;fillColor=none;top=0;left=0;bottom=0;right=0;pointerEvents=1;" parent="IummRMU9RKJVwtvEGmO_-52" vertex="1">
          <mxGeometry x="481" width="159" height="120" as="geometry">
            <mxRectangle width="159" height="120" as="alternateBounds" />
          </mxGeometry>
        </mxCell>
        <mxCell id="IummRMU9RKJVwtvEGmO_-2" value="Relación" style="shape=rhombus;perimeter=rhombusPerimeter;whiteSpace=wrap;html=1;align=center;" parent="1" vertex="1">
          <mxGeometry x="61" y="70" width="120" height="60" as="geometry" />
        </mxCell>
        <mxCell id="IummRMU9RKJVwtvEGmO_-58" value="Relación" style="shape=rhombus;perimeter=rhombusPerimeter;whiteSpace=wrap;html=1;align=center;" parent="1" vertex="1">
          <mxGeometry x="61" y="190" width="120" height="60" as="geometry" />
        </mxCell>
        <mxCell id="IummRMU9RKJVwtvEGmO_-59" value="1:1" style="text;html=1;strokeColor=none;fillColor=none;align=center;verticalAlign=middle;whiteSpace=wrap;rounded=0;" parent="1" vertex="1">
          <mxGeometry x="91" y="160" width="60" height="30" as="geometry" />
        </mxCell>
        <mxCell id="IummRMU9RKJVwtvEGmO_-60" value="Relación" style="shape=rhombus;perimeter=rhombusPerimeter;whiteSpace=wrap;html=1;align=center;" parent="1" vertex="1">
          <mxGeometry x="61" y="310" width="120" height="60" as="geometry" />
        </mxCell>
        <mxCell id="IummRMU9RKJVwtvEGmO_-61" value="1:N" style="text;html=1;strokeColor=none;fillColor=none;align=center;verticalAlign=middle;whiteSpace=wrap;rounded=0;" parent="1" vertex="1">
          <mxGeometry x="91" y="280" width="60" height="30" as="geometry" />
        </mxCell>
        <mxCell id="IummRMU9RKJVwtvEGmO_-63" value="N:M" style="text;html=1;strokeColor=none;fillColor=none;align=center;verticalAlign=middle;whiteSpace=wrap;rounded=0;" parent="1" vertex="1">
          <mxGeometry x="91" y="400" width="60" height="30" as="geometry" />
        </mxCell>
        <mxCell id="IummRMU9RKJVwtvEGmO_-65" value="" style="endArrow=none;html=1;rounded=0;entryX=0;entryY=0.5;entryDx=0;entryDy=0;exitX=0;exitY=0.5;exitDx=0;exitDy=0;" parent="1" source="IummRMU9RKJVwtvEGmO_-42" edge="1">
          <mxGeometry width="50" height="50" relative="1" as="geometry">
            <mxPoint x="390" y="440" as="sourcePoint" />
            <mxPoint x="81" y="580" as="targetPoint" />
          </mxGeometry>
        </mxCell>
        <mxCell id="IummRMU9RKJVwtvEGmO_-66" value="(0,1)" style="text;html=1;strokeColor=none;fillColor=none;align=center;verticalAlign=middle;whiteSpace=wrap;rounded=0;" parent="1" vertex="1">
          <mxGeometry x="31" y="550" width="60" height="30" as="geometry" />
        </mxCell>
        <mxCell id="IummRMU9RKJVwtvEGmO_-68" value="Entidad" style="shape=ext;margin=3;double=1;whiteSpace=wrap;html=1;align=center;" parent="1" vertex="1">
          <mxGeometry x="71" y="800" width="100" height="40" as="geometry" />
        </mxCell>
        <mxCell id="IummRMU9RKJVwtvEGmO_-69" value="Entidad" style="whiteSpace=wrap;html=1;align=center;" parent="1" vertex="1">
          <mxGeometry x="71" y="680" width="100" height="40" as="geometry" />
        </mxCell>
        <mxCell id="IummRMU9RKJVwtvEGmO_-70" value="Entidad" style="rounded=1;arcSize=10;whiteSpace=wrap;html=1;align=center;" parent="1" vertex="1">
          <mxGeometry x="81" y="560" width="100" height="40" as="geometry" />
        </mxCell>
        <mxCell id="IummRMU9RKJVwtvEGmO_-71" value="Relación" style="shape=rhombus;perimeter=rhombusPerimeter;whiteSpace=wrap;html=1;align=center;" parent="1" vertex="1">
          <mxGeometry x="61" y="430" width="120" height="60" as="geometry" />
        </mxCell>
        <mxCell id="IummRMU9RKJVwtvEGmO_-72" value="Atributo" style="ellipse;whiteSpace=wrap;html=1;align=center;" parent="1" vertex="1">
          <mxGeometry x="414" y="80" width="100" height="40" as="geometry" />
        </mxCell>
        <mxCell id="IummRMU9RKJVwtvEGmO_-73" value="" style="endArrow=none;html=1;rounded=0;entryX=0;entryY=0.5;entryDx=0;entryDy=0;" parent="1" target="IummRMU9RKJVwtvEGmO_-72" edge="1">
          <mxGeometry relative="1" as="geometry">
            <mxPoint x="379" y="141" as="sourcePoint" />
            <mxPoint x="450" y="100" as="targetPoint" />
          </mxGeometry>
        </mxCell>
        <mxCell id="IummRMU9RKJVwtvEGmO_-74" value="Atributo" style="ellipse;whiteSpace=wrap;html=1;align=center;" parent="1" vertex="1">
          <mxGeometry x="414" y="230" width="100" height="40" as="geometry" />
        </mxCell>
        <mxCell id="IummRMU9RKJVwtvEGmO_-75" value="Subatributo" style="ellipse;whiteSpace=wrap;html=1;align=center;" parent="1" vertex="1">
          <mxGeometry x="360" y="170" width="70" height="40" as="geometry" />
        </mxCell>
        <mxCell id="IummRMU9RKJVwtvEGmO_-76" value="Subatributo" style="ellipse;whiteSpace=wrap;html=1;align=center;" parent="1" vertex="1">
          <mxGeometry x="450" y="170" width="70" height="40" as="geometry" />
        </mxCell>
        <mxCell id="IummRMU9RKJVwtvEGmO_-77" value="" style="endArrow=none;html=1;rounded=0;" parent="1" source="IummRMU9RKJVwtvEGmO_-74" target="IummRMU9RKJVwtvEGmO_-76" edge="1">
          <mxGeometry relative="1" as="geometry">
            <mxPoint x="390" as="sourcePoint" />
            <mxPoint x="550" as="targetPoint" />
          </mxGeometry>
        </mxCell>
        <mxCell id="IummRMU9RKJVwtvEGmO_-78" value="" style="endArrow=none;html=1;rounded=0;" parent="1" source="IummRMU9RKJVwtvEGmO_-74" target="IummRMU9RKJVwtvEGmO_-75" edge="1">
          <mxGeometry relative="1" as="geometry">
            <mxPoint x="481" y="240" as="sourcePoint" />
            <mxPoint x="488" y="220" as="targetPoint" />
          </mxGeometry>
        </mxCell>
        <mxCell id="IummRMU9RKJVwtvEGmO_-79" value="Atributo" style="ellipse;whiteSpace=wrap;html=1;align=center;" parent="1" vertex="1">
          <mxGeometry x="414" y="320" width="100" height="40" as="geometry" />
        </mxCell>
        <mxCell id="IummRMU9RKJVwtvEGmO_-80" value="" style="endArrow=none;html=1;rounded=0;entryX=0;entryY=0.5;entryDx=0;entryDy=0;" parent="1" target="IummRMU9RKJVwtvEGmO_-79" edge="1">
          <mxGeometry relative="1" as="geometry">
            <mxPoint x="370" y="340" as="sourcePoint" />
            <mxPoint x="400" y="340" as="targetPoint" />
          </mxGeometry>
        </mxCell>
        <mxCell id="IummRMU9RKJVwtvEGmO_-81" value="Atributo" style="ellipse;whiteSpace=wrap;html=1;align=center;dashed=1;" parent="1" vertex="1">
          <mxGeometry x="391" y="440" width="100" height="40" as="geometry" />
        </mxCell>
        <mxCell id="IummRMU9RKJVwtvEGmO_-82" value="Atributo" style="ellipse;whiteSpace=wrap;html=1;align=center;fontStyle=4;" parent="1" vertex="1">
          <mxGeometry x="391" y="680" width="100" height="40" as="geometry" />
        </mxCell>
        <mxCell id="IummRMU9RKJVwtvEGmO_-84" value="Atributo" style="ellipse;whiteSpace=wrap;html=1;align=center;" parent="1" vertex="1">
          <mxGeometry x="414" y="560" width="100" height="40" as="geometry" />
        </mxCell>
        <mxCell id="IummRMU9RKJVwtvEGmO_-85" value="" style="endArrow=none;html=1;rounded=0;entryX=0;entryY=0.5;entryDx=0;entryDy=0;" parent="1" target="IummRMU9RKJVwtvEGmO_-84" edge="1">
          <mxGeometry relative="1" as="geometry">
            <mxPoint x="372" y="581" as="sourcePoint" />
            <mxPoint x="424" y="350" as="targetPoint" />
          </mxGeometry>
        </mxCell>
        <mxCell id="IummRMU9RKJVwtvEGmO_-86" value="Text" style="text;html=1;strokeColor=none;fillColor=none;align=center;verticalAlign=middle;whiteSpace=wrap;rounded=0;" parent="1" vertex="1">
          <mxGeometry x="365" y="555" width="60" height="30" as="geometry" />
        </mxCell>
        <mxCell id="IummRMU9RKJVwtvEGmO_-87" value="&lt;span style=&quot;border-bottom: 1px dotted&quot;&gt;Attributo&lt;/span&gt;" style="ellipse;whiteSpace=wrap;html=1;align=center;" parent="1" vertex="1">
          <mxGeometry x="391" y="800" width="100" height="40" as="geometry" />
        </mxCell>
        <mxCell id="IummRMU9RKJVwtvEGmO_-132" value="" style="shape=table;startSize=0;container=1;collapsible=0;childLayout=tableLayout;" parent="1" vertex="1">
          <mxGeometry x="360" y="880" width="320" height="120" as="geometry" />
        </mxCell>
        <mxCell id="IummRMU9RKJVwtvEGmO_-133" value="" style="shape=tableRow;horizontal=0;startSize=0;swimlaneHead=0;swimlaneBody=0;strokeColor=inherit;top=0;left=0;bottom=0;right=0;collapsible=0;dropTarget=0;fillColor=none;points=[[0,0.5],[1,0.5]];portConstraint=eastwest;" parent="IummRMU9RKJVwtvEGmO_-132" vertex="1">
          <mxGeometry width="320" height="120" as="geometry" />
        </mxCell>
        <mxCell id="IummRMU9RKJVwtvEGmO_-134" value="" style="shape=partialRectangle;html=1;whiteSpace=wrap;connectable=0;strokeColor=inherit;overflow=hidden;fillColor=none;top=0;left=0;bottom=0;right=0;pointerEvents=1;" parent="IummRMU9RKJVwtvEGmO_-133" vertex="1">
          <mxGeometry width="160" height="120" as="geometry">
            <mxRectangle width="160" height="120" as="alternateBounds" />
          </mxGeometry>
        </mxCell>
        <mxCell id="IummRMU9RKJVwtvEGmO_-135" value="&lt;br&gt;&lt;b style=&quot;font-size: 18px;&quot;&gt;ATRIBUTO&lt;br&gt;MULTIVALUADO&lt;br&gt;&lt;/b&gt;" style="shape=partialRectangle;html=1;whiteSpace=wrap;connectable=0;strokeColor=inherit;overflow=hidden;fillColor=none;top=0;left=0;bottom=0;right=0;pointerEvents=1;" parent="IummRMU9RKJVwtvEGmO_-133" vertex="1">
          <mxGeometry x="160" width="160" height="120" as="geometry">
            <mxRectangle width="160" height="120" as="alternateBounds" />
          </mxGeometry>
        </mxCell>
        <mxCell id="IummRMU9RKJVwtvEGmO_-136" value="Attributo" style="ellipse;shape=doubleEllipse;margin=3;whiteSpace=wrap;html=1;align=center;" parent="1" vertex="1">
          <mxGeometry x="391" y="920" width="100" height="40" as="geometry" />
        </mxCell>
        <mxCell id="IummRMU9RKJVwtvEGmO_-163" value="Entidad" style="whiteSpace=wrap;html=1;align=center;" parent="1" vertex="1">
          <mxGeometry x="870" y="50" width="100" height="40" as="geometry" />
        </mxCell>
        <mxCell id="IummRMU9RKJVwtvEGmO_-164" value="Relación" style="shape=rhombus;perimeter=rhombusPerimeter;whiteSpace=wrap;html=1;align=center;" parent="1" vertex="1">
          <mxGeometry x="800" y="130" width="120" height="60" as="geometry" />
        </mxCell>
        <mxCell id="IummRMU9RKJVwtvEGmO_-166" value="Relación" style="shape=rhombus;perimeter=rhombusPerimeter;whiteSpace=wrap;html=1;align=center;" parent="1" vertex="1">
          <mxGeometry x="920" y="130" width="120" height="60" as="geometry" />
        </mxCell>
        <mxCell id="IummRMU9RKJVwtvEGmO_-167" value="Entidad" style="whiteSpace=wrap;html=1;align=center;" parent="1" vertex="1">
          <mxGeometry x="810" y="230" width="100" height="40" as="geometry" />
        </mxCell>
        <mxCell id="IummRMU9RKJVwtvEGmO_-170" value="" style="endArrow=none;html=1;rounded=0;" parent="1" source="IummRMU9RKJVwtvEGmO_-163" target="IummRMU9RKJVwtvEGmO_-166" edge="1">
          <mxGeometry relative="1" as="geometry">
            <mxPoint x="860" y="120" as="sourcePoint" />
            <mxPoint x="1020" y="120" as="targetPoint" />
          </mxGeometry>
        </mxCell>
        <mxCell id="IummRMU9RKJVwtvEGmO_-171" value="" style="endArrow=none;html=1;rounded=0;" parent="1" source="IummRMU9RKJVwtvEGmO_-164" target="IummRMU9RKJVwtvEGmO_-163" edge="1">
          <mxGeometry relative="1" as="geometry">
            <mxPoint x="790" y="160" as="sourcePoint" />
            <mxPoint x="950" y="160" as="targetPoint" />
          </mxGeometry>
        </mxCell>
        <mxCell id="IummRMU9RKJVwtvEGmO_-175" value="" style="endArrow=none;html=1;rounded=0;" parent="1" source="IummRMU9RKJVwtvEGmO_-164" target="IummRMU9RKJVwtvEGmO_-167" edge="1">
          <mxGeometry relative="1" as="geometry">
            <mxPoint x="875" y="137" as="sourcePoint" />
            <mxPoint x="907" y="90" as="targetPoint" />
          </mxGeometry>
        </mxCell>
        <mxCell id="IummRMU9RKJVwtvEGmO_-176" value="" style="endArrow=none;html=1;rounded=0;" parent="1" source="IummRMU9RKJVwtvEGmO_-166" target="IummRMU9RKJVwtvEGmO_-177" edge="1">
          <mxGeometry relative="1" as="geometry">
            <mxPoint x="870" y="200" as="sourcePoint" />
            <mxPoint x="870" y="240" as="targetPoint" />
          </mxGeometry>
        </mxCell>
        <mxCell id="IummRMU9RKJVwtvEGmO_-177" value="Entidad" style="whiteSpace=wrap;html=1;align=center;" parent="1" vertex="1">
          <mxGeometry x="930" y="230" width="100" height="40" as="geometry" />
        </mxCell>
        <mxCell id="IummRMU9RKJVwtvEGmO_-179" value="" style="endArrow=none;html=1;rounded=0;edgeStyle=orthogonalEdgeStyle;curved=1;" parent="1" edge="1">
          <mxGeometry width="50" height="50" relative="1" as="geometry">
            <mxPoint x="852.5" y="94" as="sourcePoint" />
            <mxPoint x="987.5" y="90" as="targetPoint" />
            <Array as="points">
              <mxPoint x="852.5" y="117" />
              <mxPoint x="987.5" y="117" />
            </Array>
          </mxGeometry>
        </mxCell>
        <mxCell id="IummRMU9RKJVwtvEGmO_-193" value="Entidad" style="whiteSpace=wrap;html=1;align=center;" parent="1" vertex="1">
          <mxGeometry x="1110" y="50" width="100" height="40" as="geometry" />
        </mxCell>
        <mxCell id="IummRMU9RKJVwtvEGmO_-194" value="Relación" style="shape=rhombus;perimeter=rhombusPerimeter;whiteSpace=wrap;html=1;align=center;" parent="1" vertex="1">
          <mxGeometry x="1040" y="130" width="120" height="60" as="geometry" />
        </mxCell>
        <mxCell id="IummRMU9RKJVwtvEGmO_-195" value="Relación" style="shape=rhombus;perimeter=rhombusPerimeter;whiteSpace=wrap;html=1;align=center;" parent="1" vertex="1">
          <mxGeometry x="1160" y="130" width="120" height="60" as="geometry" />
        </mxCell>
        <mxCell id="IummRMU9RKJVwtvEGmO_-196" value="" style="endArrow=none;html=1;rounded=0;" parent="1" source="IummRMU9RKJVwtvEGmO_-193" target="IummRMU9RKJVwtvEGmO_-195" edge="1">
          <mxGeometry relative="1" as="geometry">
            <mxPoint x="1100" y="120" as="sourcePoint" />
            <mxPoint x="1260" y="120" as="targetPoint" />
          </mxGeometry>
        </mxCell>
        <mxCell id="IummRMU9RKJVwtvEGmO_-197" value="" style="endArrow=none;html=1;rounded=0;" parent="1" source="IummRMU9RKJVwtvEGmO_-194" target="IummRMU9RKJVwtvEGmO_-193" edge="1">
          <mxGeometry relative="1" as="geometry">
            <mxPoint x="1030" y="160" as="sourcePoint" />
            <mxPoint x="1190" y="160" as="targetPoint" />
          </mxGeometry>
        </mxCell>
        <mxCell id="IummRMU9RKJVwtvEGmO_-198" value="" style="endArrow=none;html=1;rounded=0;edgeStyle=orthogonalEdgeStyle;curved=1;" parent="1" edge="1">
          <mxGeometry width="50" height="50" relative="1" as="geometry">
            <mxPoint x="1092.5" y="94" as="sourcePoint" />
            <mxPoint x="1227.5" y="90" as="targetPoint" />
            <Array as="points">
              <mxPoint x="1092.5" y="117" />
              <mxPoint x="1227.5" y="117" />
            </Array>
          </mxGeometry>
        </mxCell>
        <mxCell id="IummRMU9RKJVwtvEGmO_-199" value="Entidad" style="whiteSpace=wrap;html=1;align=center;" parent="1" vertex="1">
          <mxGeometry x="1110" y="230" width="100" height="40" as="geometry" />
        </mxCell>
        <mxCell id="IummRMU9RKJVwtvEGmO_-200" value="" style="edgeStyle=none;orthogonalLoop=1;jettySize=auto;html=1;rounded=0;endArrow=none;endFill=0;" parent="1" source="IummRMU9RKJVwtvEGmO_-195" target="IummRMU9RKJVwtvEGmO_-199" edge="1">
          <mxGeometry width="80" relative="1" as="geometry">
            <mxPoint x="1310" y="30" as="sourcePoint" />
            <mxPoint x="1390" y="30" as="targetPoint" />
            <Array as="points" />
          </mxGeometry>
        </mxCell>
        <mxCell id="IummRMU9RKJVwtvEGmO_-201" value="" style="edgeStyle=none;orthogonalLoop=1;jettySize=auto;html=1;rounded=0;endArrow=none;endFill=0;" parent="1" source="IummRMU9RKJVwtvEGmO_-194" target="IummRMU9RKJVwtvEGmO_-199" edge="1">
          <mxGeometry width="80" relative="1" as="geometry">
            <mxPoint x="1220" y="70" as="sourcePoint" />
            <mxPoint x="1300" y="70" as="targetPoint" />
            <Array as="points" />
          </mxGeometry>
        </mxCell>
        <mxCell id="pnEO92WWaM8mGBFTtn49-10" value="Entidad" style="whiteSpace=wrap;html=1;align=center;" parent="1" vertex="1">
          <mxGeometry x="990" y="290" width="100" height="40" as="geometry" />
        </mxCell>
        <mxCell id="pnEO92WWaM8mGBFTtn49-11" value="Relación" style="shape=rhombus;perimeter=rhombusPerimeter;whiteSpace=wrap;html=1;align=center;" parent="1" vertex="1">
          <mxGeometry x="860" y="370" width="120" height="60" as="geometry" />
        </mxCell>
        <mxCell id="pnEO92WWaM8mGBFTtn49-12" value="Relación" style="shape=rhombus;perimeter=rhombusPerimeter;whiteSpace=wrap;html=1;align=center;" parent="1" vertex="1">
          <mxGeometry x="1100" y="370" width="120" height="60" as="geometry" />
        </mxCell>
        <mxCell id="pnEO92WWaM8mGBFTtn49-13" value="" style="endArrow=none;html=1;rounded=0;" parent="1" source="pnEO92WWaM8mGBFTtn49-10" target="pnEO92WWaM8mGBFTtn49-12" edge="1">
          <mxGeometry relative="1" as="geometry">
            <mxPoint x="980" y="360" as="sourcePoint" />
            <mxPoint x="1140" y="360" as="targetPoint" />
          </mxGeometry>
        </mxCell>
        <mxCell id="pnEO92WWaM8mGBFTtn49-14" value="" style="endArrow=none;html=1;rounded=0;" parent="1" source="pnEO92WWaM8mGBFTtn49-11" target="pnEO92WWaM8mGBFTtn49-10" edge="1">
          <mxGeometry relative="1" as="geometry">
            <mxPoint x="910" y="400" as="sourcePoint" />
            <mxPoint x="1070" y="400" as="targetPoint" />
          </mxGeometry>
        </mxCell>
        <mxCell id="pnEO92WWaM8mGBFTtn49-15" value="Entidad" style="whiteSpace=wrap;html=1;align=center;" parent="1" vertex="1">
          <mxGeometry x="990" y="470" width="100" height="40" as="geometry" />
        </mxCell>
        <mxCell id="pnEO92WWaM8mGBFTtn49-16" value="" style="edgeStyle=none;orthogonalLoop=1;jettySize=auto;html=1;rounded=0;endArrow=none;endFill=0;" parent="1" source="pnEO92WWaM8mGBFTtn49-12" target="pnEO92WWaM8mGBFTtn49-15" edge="1">
          <mxGeometry width="80" relative="1" as="geometry">
            <mxPoint x="1190" y="270" as="sourcePoint" />
            <mxPoint x="1270" y="270" as="targetPoint" />
            <Array as="points" />
          </mxGeometry>
        </mxCell>
        <mxCell id="pnEO92WWaM8mGBFTtn49-17" value="" style="edgeStyle=none;orthogonalLoop=1;jettySize=auto;html=1;rounded=0;endArrow=none;endFill=0;" parent="1" source="pnEO92WWaM8mGBFTtn49-11" target="pnEO92WWaM8mGBFTtn49-15" edge="1">
          <mxGeometry width="80" relative="1" as="geometry">
            <mxPoint x="1100" y="310" as="sourcePoint" />
            <mxPoint x="1180" y="310" as="targetPoint" />
            <Array as="points" />
          </mxGeometry>
        </mxCell>
        <mxCell id="pnEO92WWaM8mGBFTtn49-19" value="" style="endArrow=none;dashed=1;html=1;rounded=0;" parent="1" source="pnEO92WWaM8mGBFTtn49-11" target="pnEO92WWaM8mGBFTtn49-12" edge="1">
          <mxGeometry width="50" height="50" relative="1" as="geometry">
            <mxPoint x="1100" y="420" as="sourcePoint" />
            <mxPoint x="1150" y="370" as="targetPoint" />
          </mxGeometry>
        </mxCell>
        <mxCell id="pnEO92WWaM8mGBFTtn49-20" value="" style="rounded=0;whiteSpace=wrap;html=1;" parent="1" vertex="1">
          <mxGeometry x="800" y="520" width="480" height="240" as="geometry" />
        </mxCell>
        <mxCell id="pnEO92WWaM8mGBFTtn49-21" value="" style="rounded=0;whiteSpace=wrap;html=1;" parent="1" vertex="1">
          <mxGeometry x="800" y="760" width="480" height="240" as="geometry" />
        </mxCell>
        <mxCell id="pnEO92WWaM8mGBFTtn49-22" value="Entidad" style="whiteSpace=wrap;html=1;align=center;" parent="1" vertex="1">
          <mxGeometry x="990" y="530" width="100" height="40" as="geometry" />
        </mxCell>
        <mxCell id="pnEO92WWaM8mGBFTtn49-23" value="Relación" style="shape=rhombus;perimeter=rhombusPerimeter;whiteSpace=wrap;html=1;align=center;" parent="1" vertex="1">
          <mxGeometry x="920" y="610" width="120" height="60" as="geometry" />
        </mxCell>
        <mxCell id="pnEO92WWaM8mGBFTtn49-24" value="Relación" style="shape=rhombus;perimeter=rhombusPerimeter;whiteSpace=wrap;html=1;align=center;" parent="1" vertex="1">
          <mxGeometry x="1040" y="610" width="120" height="60" as="geometry" />
        </mxCell>
        <mxCell id="pnEO92WWaM8mGBFTtn49-25" value="" style="endArrow=none;html=1;rounded=0;" parent="1" source="pnEO92WWaM8mGBFTtn49-22" target="pnEO92WWaM8mGBFTtn49-24" edge="1">
          <mxGeometry relative="1" as="geometry">
            <mxPoint x="980" y="600" as="sourcePoint" />
            <mxPoint x="1140" y="600" as="targetPoint" />
          </mxGeometry>
        </mxCell>
        <mxCell id="pnEO92WWaM8mGBFTtn49-26" value="" style="endArrow=none;html=1;rounded=0;" parent="1" source="pnEO92WWaM8mGBFTtn49-23" target="pnEO92WWaM8mGBFTtn49-22" edge="1">
          <mxGeometry relative="1" as="geometry">
            <mxPoint x="910" y="640" as="sourcePoint" />
            <mxPoint x="1070" y="640" as="targetPoint" />
          </mxGeometry>
        </mxCell>
        <mxCell id="pnEO92WWaM8mGBFTtn49-27" value="" style="endArrow=classic;html=1;rounded=0;edgeStyle=orthogonalEdgeStyle;curved=1;endFill=1;" parent="1" edge="1">
          <mxGeometry width="50" height="50" relative="1" as="geometry">
            <mxPoint x="972.5" y="574" as="sourcePoint" />
            <mxPoint x="1107.5" y="570" as="targetPoint" />
            <Array as="points">
              <mxPoint x="972.5" y="597" />
              <mxPoint x="1107.5" y="597" />
            </Array>
          </mxGeometry>
        </mxCell>
        <mxCell id="pnEO92WWaM8mGBFTtn49-28" value="Entidad" style="whiteSpace=wrap;html=1;align=center;" parent="1" vertex="1">
          <mxGeometry x="990" y="710" width="100" height="40" as="geometry" />
        </mxCell>
        <mxCell id="pnEO92WWaM8mGBFTtn49-29" value="" style="edgeStyle=none;orthogonalLoop=1;jettySize=auto;html=1;rounded=0;endArrow=none;endFill=0;" parent="1" source="pnEO92WWaM8mGBFTtn49-24" target="pnEO92WWaM8mGBFTtn49-28" edge="1">
          <mxGeometry width="80" relative="1" as="geometry">
            <mxPoint x="1190" y="510" as="sourcePoint" />
            <mxPoint x="1270" y="510" as="targetPoint" />
            <Array as="points" />
          </mxGeometry>
        </mxCell>
        <mxCell id="pnEO92WWaM8mGBFTtn49-30" value="" style="edgeStyle=none;orthogonalLoop=1;jettySize=auto;html=1;rounded=0;endArrow=none;endFill=0;" parent="1" source="pnEO92WWaM8mGBFTtn49-23" target="pnEO92WWaM8mGBFTtn49-28" edge="1">
          <mxGeometry width="80" relative="1" as="geometry">
            <mxPoint x="1100" y="550" as="sourcePoint" />
            <mxPoint x="1180" y="550" as="targetPoint" />
            <Array as="points" />
          </mxGeometry>
        </mxCell>
        <mxCell id="pnEO92WWaM8mGBFTtn49-31" value="Entidad1" style="whiteSpace=wrap;html=1;align=center;" parent="1" vertex="1">
          <mxGeometry x="990" y="770" width="100" height="40" as="geometry" />
        </mxCell>
        <mxCell id="pnEO92WWaM8mGBFTtn49-32" value="Relación1" style="shape=rhombus;perimeter=rhombusPerimeter;whiteSpace=wrap;html=1;align=center;" parent="1" vertex="1">
          <mxGeometry x="860" y="850" width="120" height="60" as="geometry" />
        </mxCell>
        <mxCell id="pnEO92WWaM8mGBFTtn49-33" value="Relación2" style="shape=rhombus;perimeter=rhombusPerimeter;whiteSpace=wrap;html=1;align=center;" parent="1" vertex="1">
          <mxGeometry x="1100" y="850" width="120" height="60" as="geometry" />
        </mxCell>
        <mxCell id="pnEO92WWaM8mGBFTtn49-34" value="" style="endArrow=none;html=1;rounded=0;" parent="1" source="pnEO92WWaM8mGBFTtn49-31" target="pnEO92WWaM8mGBFTtn49-33" edge="1">
          <mxGeometry relative="1" as="geometry">
            <mxPoint x="980" y="840" as="sourcePoint" />
            <mxPoint x="1140" y="840" as="targetPoint" />
          </mxGeometry>
        </mxCell>
        <mxCell id="pnEO92WWaM8mGBFTtn49-35" value="" style="endArrow=none;html=1;rounded=0;" parent="1" source="pnEO92WWaM8mGBFTtn49-32" target="pnEO92WWaM8mGBFTtn49-31" edge="1">
          <mxGeometry relative="1" as="geometry">
            <mxPoint x="910" y="880" as="sourcePoint" />
            <mxPoint x="1070" y="880" as="targetPoint" />
          </mxGeometry>
        </mxCell>
        <mxCell id="pnEO92WWaM8mGBFTtn49-36" value="Entidad2" style="whiteSpace=wrap;html=1;align=center;" parent="1" vertex="1">
          <mxGeometry x="990" y="950" width="100" height="40" as="geometry" />
        </mxCell>
        <mxCell id="pnEO92WWaM8mGBFTtn49-37" value="" style="edgeStyle=none;orthogonalLoop=1;jettySize=auto;html=1;rounded=0;endArrow=none;endFill=0;" parent="1" source="pnEO92WWaM8mGBFTtn49-33" target="pnEO92WWaM8mGBFTtn49-36" edge="1">
          <mxGeometry width="80" relative="1" as="geometry">
            <mxPoint x="1190" y="750" as="sourcePoint" />
            <mxPoint x="1270" y="750" as="targetPoint" />
            <Array as="points" />
          </mxGeometry>
        </mxCell>
        <mxCell id="pnEO92WWaM8mGBFTtn49-38" value="" style="edgeStyle=none;orthogonalLoop=1;jettySize=auto;html=1;rounded=0;endArrow=none;endFill=0;" parent="1" source="pnEO92WWaM8mGBFTtn49-32" target="pnEO92WWaM8mGBFTtn49-36" edge="1">
          <mxGeometry width="80" relative="1" as="geometry">
            <mxPoint x="1100" y="790" as="sourcePoint" />
            <mxPoint x="1180" y="790" as="targetPoint" />
            <Array as="points" />
          </mxGeometry>
        </mxCell>
        <mxCell id="pnEO92WWaM8mGBFTtn49-39" value="" style="endArrow=classic;dashed=1;html=1;rounded=0;startArrow=none;startFill=0;endFill=1;" parent="1" source="pnEO92WWaM8mGBFTtn49-32" target="pnEO92WWaM8mGBFTtn49-33" edge="1">
          <mxGeometry width="50" height="50" relative="1" as="geometry">
            <mxPoint x="1100" y="900" as="sourcePoint" />
            <mxPoint x="1150" y="850" as="targetPoint" />
          </mxGeometry>
        </mxCell>
        <mxCell id="pnEO92WWaM8mGBFTtn49-40" value="Supertipo" style="whiteSpace=wrap;html=1;align=center;" parent="1" vertex="1">
          <mxGeometry x="1590" y="50" width="100" height="40" as="geometry" />
        </mxCell>
        <mxCell id="pnEO92WWaM8mGBFTtn49-41" value="Subtipo" style="whiteSpace=wrap;html=1;align=center;" parent="1" vertex="1">
          <mxGeometry x="1600" y="220" width="80" height="40" as="geometry" />
        </mxCell>
        <mxCell id="pnEO92WWaM8mGBFTtn49-42" value="" style="triangle;whiteSpace=wrap;html=1;rotation=91;" parent="1" vertex="1">
          <mxGeometry x="1610" y="120" width="60" height="80" as="geometry" />
        </mxCell>
        <mxCell id="pnEO92WWaM8mGBFTtn49-43" value="" style="ellipse;whiteSpace=wrap;html=1;aspect=fixed;" parent="1" vertex="1">
          <mxGeometry x="1635" y="110" width="10" height="10" as="geometry" />
        </mxCell>
        <mxCell id="pnEO92WWaM8mGBFTtn49-44" value="" style="endArrow=none;html=1;rounded=0;exitX=0.5;exitY=0;exitDx=0;exitDy=0;" parent="1" source="pnEO92WWaM8mGBFTtn49-43" target="pnEO92WWaM8mGBFTtn49-40" edge="1">
          <mxGeometry relative="1" as="geometry">
            <mxPoint x="1490" y="140" as="sourcePoint" />
            <mxPoint x="1650" y="140" as="targetPoint" />
          </mxGeometry>
        </mxCell>
        <mxCell id="pnEO92WWaM8mGBFTtn49-45" value="" style="endArrow=none;html=1;rounded=0;entryX=0.5;entryY=1;entryDx=0;entryDy=0;" parent="1" source="pnEO92WWaM8mGBFTtn49-42" target="pnEO92WWaM8mGBFTtn49-43" edge="1">
          <mxGeometry relative="1" as="geometry">
            <mxPoint x="1600" y="170" as="sourcePoint" />
            <mxPoint x="1760" y="170" as="targetPoint" />
          </mxGeometry>
        </mxCell>
        <mxCell id="pnEO92WWaM8mGBFTtn49-46" value="" style="endArrow=none;html=1;rounded=0;" parent="1" source="pnEO92WWaM8mGBFTtn49-42" target="pnEO92WWaM8mGBFTtn49-41" edge="1">
          <mxGeometry relative="1" as="geometry">
            <mxPoint x="1690" y="150" as="sourcePoint" />
            <mxPoint x="1850" y="150" as="targetPoint" />
          </mxGeometry>
        </mxCell>
        <mxCell id="pnEO92WWaM8mGBFTtn49-47" value="Subtipo" style="whiteSpace=wrap;html=1;align=center;" parent="1" vertex="1">
          <mxGeometry x="1520" y="220" width="80" height="40" as="geometry" />
        </mxCell>
        <mxCell id="pnEO92WWaM8mGBFTtn49-48" value="Subtipo" style="whiteSpace=wrap;html=1;align=center;" parent="1" vertex="1">
          <mxGeometry x="1680" y="220" width="80" height="40" as="geometry" />
        </mxCell>
        <mxCell id="pnEO92WWaM8mGBFTtn49-49" value="" style="endArrow=none;html=1;rounded=0;" parent="1" source="pnEO92WWaM8mGBFTtn49-42" target="pnEO92WWaM8mGBFTtn49-48" edge="1">
          <mxGeometry relative="1" as="geometry">
            <mxPoint x="1650" y="199" as="sourcePoint" />
            <mxPoint x="1650" y="230" as="targetPoint" />
          </mxGeometry>
        </mxCell>
        <mxCell id="pnEO92WWaM8mGBFTtn49-50" value="" style="endArrow=none;html=1;rounded=0;" parent="1" source="pnEO92WWaM8mGBFTtn49-42" target="pnEO92WWaM8mGBFTtn49-47" edge="1">
          <mxGeometry relative="1" as="geometry">
            <mxPoint x="1662" y="182" as="sourcePoint" />
            <mxPoint x="1710" y="230" as="targetPoint" />
          </mxGeometry>
        </mxCell>
        <mxCell id="pnEO92WWaM8mGBFTtn49-62" value="Supertipo" style="whiteSpace=wrap;html=1;align=center;" parent="1" vertex="1">
          <mxGeometry x="1590" y="290" width="100" height="40" as="geometry" />
        </mxCell>
        <mxCell id="pnEO92WWaM8mGBFTtn49-63" value="Subtipo" style="whiteSpace=wrap;html=1;align=center;" parent="1" vertex="1">
          <mxGeometry x="1600" y="460" width="80" height="40" as="geometry" />
        </mxCell>
        <mxCell id="pnEO92WWaM8mGBFTtn49-64" value="" style="endArrow=none;html=1;rounded=0;" parent="1" source="pnEO92WWaM8mGBFTtn49-70" target="pnEO92WWaM8mGBFTtn49-62" edge="1">
          <mxGeometry relative="1" as="geometry">
            <mxPoint x="1640" y="350" as="sourcePoint" />
            <mxPoint x="1650" y="380" as="targetPoint" />
          </mxGeometry>
        </mxCell>
        <mxCell id="pnEO92WWaM8mGBFTtn49-65" value="" style="endArrow=none;html=1;rounded=0;" parent="1" source="pnEO92WWaM8mGBFTtn49-70" target="pnEO92WWaM8mGBFTtn49-63" edge="1">
          <mxGeometry relative="1" as="geometry">
            <mxPoint x="1640" y="429" as="sourcePoint" />
            <mxPoint x="1850" y="390" as="targetPoint" />
          </mxGeometry>
        </mxCell>
        <mxCell id="pnEO92WWaM8mGBFTtn49-66" value="Subtipo" style="whiteSpace=wrap;html=1;align=center;" parent="1" vertex="1">
          <mxGeometry x="1520" y="460" width="80" height="40" as="geometry" />
        </mxCell>
        <mxCell id="pnEO92WWaM8mGBFTtn49-67" value="Subtipo" style="whiteSpace=wrap;html=1;align=center;" parent="1" vertex="1">
          <mxGeometry x="1680" y="460" width="80" height="40" as="geometry" />
        </mxCell>
        <mxCell id="pnEO92WWaM8mGBFTtn49-68" value="" style="endArrow=none;html=1;rounded=0;" parent="1" source="pnEO92WWaM8mGBFTtn49-70" target="pnEO92WWaM8mGBFTtn49-67" edge="1">
          <mxGeometry relative="1" as="geometry">
            <mxPoint x="1652" y="412" as="sourcePoint" />
            <mxPoint x="1650" y="470" as="targetPoint" />
          </mxGeometry>
        </mxCell>
        <mxCell id="pnEO92WWaM8mGBFTtn49-69" value="" style="endArrow=none;html=1;rounded=0;" parent="1" source="pnEO92WWaM8mGBFTtn49-70" target="pnEO92WWaM8mGBFTtn49-66" edge="1">
          <mxGeometry relative="1" as="geometry">
            <mxPoint x="1628" y="412" as="sourcePoint" />
            <mxPoint x="1710" y="470" as="targetPoint" />
          </mxGeometry>
        </mxCell>
        <mxCell id="pnEO92WWaM8mGBFTtn49-70" value="" style="triangle;whiteSpace=wrap;html=1;rotation=91;" parent="1" vertex="1">
          <mxGeometry x="1610" y="360" width="60" height="80" as="geometry" />
        </mxCell>
        <mxCell id="pnEO92WWaM8mGBFTtn49-71" value="Supertipo" style="whiteSpace=wrap;html=1;align=center;" parent="1" vertex="1">
          <mxGeometry x="1590" y="530" width="100" height="40" as="geometry" />
        </mxCell>
        <mxCell id="pnEO92WWaM8mGBFTtn49-73" value="" style="endArrow=none;html=1;rounded=0;" parent="1" source="pnEO92WWaM8mGBFTtn49-79" target="pnEO92WWaM8mGBFTtn49-71" edge="1">
          <mxGeometry relative="1" as="geometry">
            <mxPoint x="1640" y="590" as="sourcePoint" />
            <mxPoint x="1650" y="620" as="targetPoint" />
          </mxGeometry>
        </mxCell>
        <mxCell id="pnEO92WWaM8mGBFTtn49-75" value="Subtipo" style="whiteSpace=wrap;html=1;align=center;" parent="1" vertex="1">
          <mxGeometry x="1520" y="700" width="80" height="40" as="geometry" />
        </mxCell>
        <mxCell id="pnEO92WWaM8mGBFTtn49-76" value="Subtipo" style="whiteSpace=wrap;html=1;align=center;" parent="1" vertex="1">
          <mxGeometry x="1680" y="700" width="80" height="40" as="geometry" />
        </mxCell>
        <mxCell id="pnEO92WWaM8mGBFTtn49-77" value="" style="endArrow=none;html=1;rounded=0;" parent="1" source="pnEO92WWaM8mGBFTtn49-79" target="pnEO92WWaM8mGBFTtn49-76" edge="1">
          <mxGeometry relative="1" as="geometry">
            <mxPoint x="1652" y="652" as="sourcePoint" />
            <mxPoint x="1650" y="710" as="targetPoint" />
          </mxGeometry>
        </mxCell>
        <mxCell id="pnEO92WWaM8mGBFTtn49-78" value="" style="endArrow=none;html=1;rounded=0;" parent="1" source="pnEO92WWaM8mGBFTtn49-79" target="pnEO92WWaM8mGBFTtn49-75" edge="1">
          <mxGeometry relative="1" as="geometry">
            <mxPoint x="1628" y="652" as="sourcePoint" />
            <mxPoint x="1710" y="710" as="targetPoint" />
          </mxGeometry>
        </mxCell>
        <mxCell id="pnEO92WWaM8mGBFTtn49-79" value="" style="triangle;whiteSpace=wrap;html=1;rotation=91;" parent="1" vertex="1">
          <mxGeometry x="1610" y="600" width="60" height="80" as="geometry" />
        </mxCell>
        <mxCell id="pnEO92WWaM8mGBFTtn49-80" value="(1,1)&lt;br&gt;ó&lt;br&gt;(0,1)" style="text;html=1;strokeColor=none;fillColor=none;align=center;verticalAlign=middle;whiteSpace=wrap;rounded=0;" parent="1" vertex="1">
          <mxGeometry x="1530" y="650" width="60" height="40" as="geometry" />
        </mxCell>
        <mxCell id="pnEO92WWaM8mGBFTtn49-81" value="(1,1)&lt;br&gt;ó&lt;br&gt;(0,1)" style="text;html=1;strokeColor=none;fillColor=none;align=center;verticalAlign=middle;whiteSpace=wrap;rounded=0;" parent="1" vertex="1">
          <mxGeometry x="1690" y="650" width="60" height="40" as="geometry" />
        </mxCell>
        <mxCell id="pnEO92WWaM8mGBFTtn49-114" value="Supertipo" style="whiteSpace=wrap;html=1;align=center;" parent="1" vertex="1">
          <mxGeometry x="1590" y="770" width="100" height="40" as="geometry" />
        </mxCell>
        <mxCell id="pnEO92WWaM8mGBFTtn49-115" value="Subtipo" style="whiteSpace=wrap;html=1;align=center;" parent="1" vertex="1">
          <mxGeometry x="1600" y="940" width="80" height="40" as="geometry" />
        </mxCell>
        <mxCell id="pnEO92WWaM8mGBFTtn49-116" value="" style="triangle;whiteSpace=wrap;html=1;rotation=91;" parent="1" vertex="1">
          <mxGeometry x="1610" y="840" width="60" height="80" as="geometry" />
        </mxCell>
        <mxCell id="pnEO92WWaM8mGBFTtn49-117" value="" style="ellipse;whiteSpace=wrap;html=1;aspect=fixed;" parent="1" vertex="1">
          <mxGeometry x="1635" y="830" width="10" height="10" as="geometry" />
        </mxCell>
        <mxCell id="pnEO92WWaM8mGBFTtn49-118" value="" style="endArrow=none;html=1;rounded=0;exitX=0.5;exitY=0;exitDx=0;exitDy=0;" parent="1" source="pnEO92WWaM8mGBFTtn49-117" target="pnEO92WWaM8mGBFTtn49-114" edge="1">
          <mxGeometry relative="1" as="geometry">
            <mxPoint x="1490" y="860" as="sourcePoint" />
            <mxPoint x="1650" y="860" as="targetPoint" />
          </mxGeometry>
        </mxCell>
        <mxCell id="pnEO92WWaM8mGBFTtn49-119" value="" style="endArrow=none;html=1;rounded=0;entryX=0.5;entryY=1;entryDx=0;entryDy=0;" parent="1" source="pnEO92WWaM8mGBFTtn49-116" target="pnEO92WWaM8mGBFTtn49-117" edge="1">
          <mxGeometry relative="1" as="geometry">
            <mxPoint x="1600" y="890" as="sourcePoint" />
            <mxPoint x="1760" y="890" as="targetPoint" />
          </mxGeometry>
        </mxCell>
        <mxCell id="pnEO92WWaM8mGBFTtn49-120" value="" style="endArrow=none;html=1;rounded=0;" parent="1" source="pnEO92WWaM8mGBFTtn49-116" target="pnEO92WWaM8mGBFTtn49-115" edge="1">
          <mxGeometry relative="1" as="geometry">
            <mxPoint x="1690" y="870" as="sourcePoint" />
            <mxPoint x="1850" y="870" as="targetPoint" />
          </mxGeometry>
        </mxCell>
        <mxCell id="pnEO92WWaM8mGBFTtn49-121" value="Subtipo" style="whiteSpace=wrap;html=1;align=center;" parent="1" vertex="1">
          <mxGeometry x="1520" y="940" width="80" height="40" as="geometry" />
        </mxCell>
        <mxCell id="pnEO92WWaM8mGBFTtn49-122" value="Subtipo" style="whiteSpace=wrap;html=1;align=center;" parent="1" vertex="1">
          <mxGeometry x="1680" y="940" width="80" height="40" as="geometry" />
        </mxCell>
        <mxCell id="pnEO92WWaM8mGBFTtn49-123" value="" style="endArrow=none;html=1;rounded=0;" parent="1" source="pnEO92WWaM8mGBFTtn49-116" target="pnEO92WWaM8mGBFTtn49-122" edge="1">
          <mxGeometry relative="1" as="geometry">
            <mxPoint x="1650" y="919" as="sourcePoint" />
            <mxPoint x="1650" y="950" as="targetPoint" />
          </mxGeometry>
        </mxCell>
        <mxCell id="pnEO92WWaM8mGBFTtn49-124" value="" style="endArrow=none;html=1;rounded=0;" parent="1" source="pnEO92WWaM8mGBFTtn49-116" target="pnEO92WWaM8mGBFTtn49-121" edge="1">
          <mxGeometry relative="1" as="geometry">
            <mxPoint x="1662" y="902" as="sourcePoint" />
            <mxPoint x="1710" y="950" as="targetPoint" />
          </mxGeometry>
        </mxCell>
        <mxCell id="pnEO92WWaM8mGBFTtn49-125" value="" style="endArrow=none;html=1;rounded=0;edgeStyle=orthogonalEdgeStyle;curved=1;" parent="1" edge="1">
          <mxGeometry width="50" height="50" relative="1" as="geometry">
            <mxPoint x="1572.5" y="897" as="sourcePoint" />
            <mxPoint x="1707.5" y="893" as="targetPoint" />
            <Array as="points">
              <mxPoint x="1572.5" y="920" />
              <mxPoint x="1707.5" y="920" />
            </Array>
          </mxGeometry>
        </mxCell>
        <mxCell id="pnEO92WWaM8mGBFTtn49-127" value="" style="rounded=0;whiteSpace=wrap;html=1;" parent="1" vertex="1">
          <mxGeometry x="800" y="1000" width="722" height="240" as="geometry" />
        </mxCell>
        <mxCell id="pnEO92WWaM8mGBFTtn49-128" value="" style="rounded=0;whiteSpace=wrap;html=1;" parent="1" vertex="1">
          <mxGeometry x="830" y="1050" width="420" height="140" as="geometry" />
        </mxCell>
        <mxCell id="pnEO92WWaM8mGBFTtn49-129" value="Entidad" style="whiteSpace=wrap;html=1;align=center;" parent="1" vertex="1">
          <mxGeometry x="840" y="1100" width="100" height="40" as="geometry" />
        </mxCell>
        <mxCell id="pnEO92WWaM8mGBFTtn49-130" value="Entidad" style="whiteSpace=wrap;html=1;align=center;" parent="1" vertex="1">
          <mxGeometry x="1141" y="1100" width="100" height="40" as="geometry" />
        </mxCell>
        <mxCell id="pnEO92WWaM8mGBFTtn49-131" value="Relación" style="shape=rhombus;perimeter=rhombusPerimeter;whiteSpace=wrap;html=1;align=center;" parent="1" vertex="1">
          <mxGeometry x="980" y="1090" width="120" height="60" as="geometry" />
        </mxCell>
        <mxCell id="pnEO92WWaM8mGBFTtn49-132" value="Relación" style="shape=rhombus;perimeter=rhombusPerimeter;whiteSpace=wrap;html=1;align=center;" parent="1" vertex="1">
          <mxGeometry x="1270" y="1090" width="120" height="60" as="geometry" />
        </mxCell>
        <mxCell id="pnEO92WWaM8mGBFTtn49-133" value="Entidad" style="whiteSpace=wrap;html=1;align=center;" parent="1" vertex="1">
          <mxGeometry x="1410" y="1100" width="100" height="40" as="geometry" />
        </mxCell>
        <mxCell id="pnEO92WWaM8mGBFTtn49-134" value="Entidad agregada" style="text;html=1;strokeColor=none;fillColor=none;align=center;verticalAlign=middle;whiteSpace=wrap;rounded=0;" parent="1" vertex="1">
          <mxGeometry x="830" y="1160" width="60" height="30" as="geometry" />
        </mxCell>
        <mxCell id="pnEO92WWaM8mGBFTtn49-135" value="" style="endArrow=none;html=1;rounded=0;" parent="1" source="pnEO92WWaM8mGBFTtn49-129" target="pnEO92WWaM8mGBFTtn49-131" edge="1">
          <mxGeometry relative="1" as="geometry">
            <mxPoint x="920" y="1120" as="sourcePoint" />
            <mxPoint x="1080" y="1120" as="targetPoint" />
          </mxGeometry>
        </mxCell>
        <mxCell id="pnEO92WWaM8mGBFTtn49-136" value="" style="endArrow=none;html=1;rounded=0;" parent="1" source="pnEO92WWaM8mGBFTtn49-131" target="pnEO92WWaM8mGBFTtn49-130" edge="1">
          <mxGeometry relative="1" as="geometry">
            <mxPoint x="1040" y="1120" as="sourcePoint" />
            <mxPoint x="990" y="1130" as="targetPoint" />
          </mxGeometry>
        </mxCell>
        <mxCell id="pnEO92WWaM8mGBFTtn49-137" value="" style="endArrow=none;html=1;rounded=0;" parent="1" source="pnEO92WWaM8mGBFTtn49-128" target="pnEO92WWaM8mGBFTtn49-132" edge="1">
          <mxGeometry relative="1" as="geometry">
            <mxPoint x="1110" y="1130" as="sourcePoint" />
            <mxPoint x="1151" y="1130" as="targetPoint" />
          </mxGeometry>
        </mxCell>
        <mxCell id="pnEO92WWaM8mGBFTtn49-138" value="" style="endArrow=none;html=1;rounded=0;" parent="1" source="pnEO92WWaM8mGBFTtn49-132" target="pnEO92WWaM8mGBFTtn49-133" edge="1">
          <mxGeometry relative="1" as="geometry">
            <mxPoint x="1330" y="1120" as="sourcePoint" />
            <mxPoint x="1280" y="1130" as="targetPoint" />
          </mxGeometry>
        </mxCell>
      </root>
    </mxGraphModel>
  </diagram>
</mxfile>
